<svg xmlns="http://www.w3.org/2000/svg" xmlns:xlink="http://www.w3.org/1999/xlink" xmlns:lucid="lucid" width="1202.38" height="692.14"><g transform="translate(141.1910018536928 40)" lucid:page-tab-id="0_0"><path d="M-100.2 231.82h-32a8 8 0 0 1-8-8V54.92a8 8 0 0 1 8-8h32z" stroke="#000" stroke-width="2" fill="#cfe4ff"/><path d="M-100.2 46.9h1152a8 8 0 0 1 8 8v168.92a8 8 0 0 1-8 8h-1152z" stroke="#000" stroke-width="2" fill="none"/><use xlink:href="#a" transform="matrix(-1.8369701987210297e-16,-1,1,-1.8369701987210297e-16,-140.19100185369274,231.82215667622447) translate(53.94444444444444 24)"/><use xlink:href="#b" transform="matrix(-1.8369701987210297e-16,-1,1,-1.8369701987210297e-16,-140.19100185369274,231.82215667622447) translate(102.22222222222223 24)"/><path d="M39.8 99.37c22.1 0 40 17.9 40 40s-17.9 40-40 40h-80c-22.08 0-40-17.9-40-40s17.92-40 40-40z" stroke="#cfe4ff" stroke-width="2" fill="#fff"/><use xlink:href="#c" transform="matrix(1,0,0,1,-75.1910018536928,104.36795509207276) translate(8.194444444444457 40.0625)"/><use xlink:href="#d" transform="matrix(1,0,0,1,-75.1910018536928,104.36795509207276) translate(107.47222222222223 40.0625)"/><path d="M159.8 107.3a9.06 9.06 0 0 1 7.95-9l144.12-17.94a7.07 7.07 0 0 1 7.94 7v104a8 8 0 0 1-8 8h-144a8 8 0 0 1-8-8z" stroke="#cfe4ff" stroke-width="2" fill="#fff"/><use xlink:href="#e" transform="matrix(1,0,0,1,164.8089981463072,104.36795509207276) translate(22.611111111111114 35.6875)"/><use xlink:href="#f" transform="matrix(1,0,0,1,164.8089981463072,104.36795509207276) translate(65.22222222222223 35.6875)"/><use xlink:href="#g" transform="matrix(1,0,0,1,164.8089981463072,104.36795509207276) translate(52.80555555555556 64.4875)"/><path d="M81.3 139.37h61.13" stroke="#3a414a" fill="none"/><path d="M81.32 139.84h-.54l.03-.46v-.5h.52z" stroke="#3a414a" stroke-width=".05" fill="#3a414a"/><path d="M157.2 139.37L142.92 144v-9.27z" stroke="#3a414a" fill="#3a414a"/><path d="M399.8 99.1a9.3 9.3 0 0 1 7.92-9.17L551.9 68.3a6.9 6.9 0 0 1 7.9 6.83V203.6a8 8 0 0 1-8 8h-144a8 8 0 0 1-8-8z" stroke="#cfe4ff" stroke-width="2" fill="#fff"/><use xlink:href="#e" transform="matrix(1,0,0,1,404.8089981463072,96.20795509207277) translate(27.111111111111114 19.46875)"/><use xlink:href="#h" transform="matrix(1,0,0,1,404.8089981463072,96.20795509207277) translate(69.72222222222223 19.46875)"/><use xlink:href="#i" transform="matrix(1,0,0,1,404.8089981463072,96.20795509207277) translate(17.388888888888886 48.26875)"/><use xlink:href="#j" transform="matrix(1,0,0,1,404.8089981463072,96.20795509207277) translate(75.61111111111111 48.26875)"/><use xlink:href="#k" transform="matrix(1,0,0,1,404.8089981463072,96.20795509207277) translate(109.38888888888889 48.26875)"/><use xlink:href="#l" transform="matrix(1,0,0,1,404.8089981463072,96.20795509207277) translate(25.91666666666667 77.06875)"/><use xlink:href="#m" transform="matrix(1,0,0,1,404.8089981463072,96.20795509207277) translate(95.25 77.06875)"/><use xlink:href="#n" transform="matrix(1,0,0,1,404.8089981463072,96.20795509207277) translate(0.9444444444444571 105.86874999999999)"/><use xlink:href="#o" transform="matrix(1,0,0,1,404.8089981463072,96.20795509207277) translate(63.66666666666668 105.86874999999999)"/><path d="M909 84.66a10 10 0 0 1 8.8-5.3h106c8.85 0 16 26.87 16 60 0 33.14-7.15 60-16 60h-106a10 10 0 0 1-8.8-5.3l-26.37-49.4a11.25 11.25 0 0 1 0-10.6z" stroke="#cfe4ff" stroke-width="2" fill="#fff"/><use xlink:href="#p" transform="matrix(1,0,0,1,884.8089981463072,84.36795509207276) translate(33.15932098765432 41.84027777777778)"/><use xlink:href="#q" transform="matrix(1,0,0,1,884.8089981463072,84.36795509207276) translate(49.88154320987654 73.84027777777777)"/><path d="M639.8 85.37a6 6 0 0 1 6-6h132a6 6 0 0 1 6 6v96c-24.04-17.04-39-17.04-48.1-17.04-14.4 0-33.54 17.04-47.94 17.04-8.93 0-24.05 0-47.95-17.04z" stroke="#cfe4ff" stroke-width="2" fill="#fff"/><path d="M647.8 94.37a6 6 0 0 1 6-6h132a6 6 0 0 1 6 6v96c-24.04-17.04-39-17.04-48.1-17.04-14.4 0-33.54 17.04-47.94 17.04-8.93 0-24.05 0-47.95-17.04z" stroke="#cfe4ff" stroke-width="2" fill="#fff"/><path d="M655.8 103.37a6 6 0 0 1 6-6h132a6 6 0 0 1 6 6v96c-24.04-17.04-39-17.04-48.1-17.04-14.4 0-33.54 17.04-47.94 17.04-8.93 0-24.05 0-47.95-17.04z" stroke="#cfe4ff" stroke-width="2" fill="#fff"/><use xlink:href="#r" transform="matrix(1,0,0,1,660.8089981463072,102.36795509207276) translate(21.561728395061728 20.12152777777778)"/><use xlink:href="#s" transform="matrix(1,0,0,1,660.8089981463072,102.36795509207276) translate(23.938271604938272 52.12152777777778)"/><path d="M801.3 139.37h62.62" stroke="#3a414a" fill="none"/><path d="M801.32 139.84h-.5v-.95h.5z" stroke="#3a414a" stroke-width=".05" fill="#3a414a"/><path d="M878.7 139.37L864.4 144v-9.27z" stroke="#3a414a" fill="#3a414a"/><path d="M-100.2 231.82h-32a8 8 0 0 1-8-8V54.92a8 8 0 0 1 8-8h32z" stroke="#000" stroke-width="2" fill="#cfe4ff"/><path d="M-100.2 46.9h1152a8 8 0 0 1 8 8v168.92a8 8 0 0 1-8 8h-1152z" stroke="#000" stroke-width="2" fill="none"/><use xlink:href="#a" transform="matrix(-1.8369701987210297e-16,-1,1,-1.8369701987210297e-16,-140.19100185369274,231.82215667622447) translate(53.94444444444444 24)"/><use xlink:href="#b" transform="matrix(-1.8369701987210297e-16,-1,1,-1.8369701987210297e-16,-140.19100185369274,231.82215667622447) translate(102.22222222222223 24)"/><path d="M39.8 99.37c22.1 0 40 17.9 40 40s-17.9 40-40 40h-80c-22.08 0-40-17.9-40-40s17.92-40 40-40z" stroke="#cfe4ff" stroke-width="2" fill="#fff"/><use xlink:href="#c" transform="matrix(1,0,0,1,-75.1910018536928,104.36795509207276) translate(8.194444444444457 40.0625)"/><use xlink:href="#d" transform="matrix(1,0,0,1,-75.1910018536928,104.36795509207276) translate(107.47222222222223 40.0625)"/><path d="M159.8 107.3a9.06 9.06 0 0 1 7.95-9l144.12-17.94a7.07 7.07 0 0 1 7.94 7v104a8 8 0 0 1-8 8h-144a8 8 0 0 1-8-8z" stroke="#cfe4ff" stroke-width="2" fill="#fff"/><use xlink:href="#e" transform="matrix(1,0,0,1,164.8089981463072,104.36795509207276) translate(22.611111111111114 35.6875)"/><use xlink:href="#f" transform="matrix(1,0,0,1,164.8089981463072,104.36795509207276) translate(65.22222222222223 35.6875)"/><use xlink:href="#g" transform="matrix(1,0,0,1,164.8089981463072,104.36795509207276) translate(52.80555555555556 64.4875)"/><path d="M81.3 139.37h61.13" stroke="#3a414a" fill="none"/><path d="M81.32 139.84h-.54l.03-.46v-.5h.52z" stroke="#3a414a" stroke-width=".05" fill="#3a414a"/><path d="M157.2 139.37L142.92 144v-9.27z" stroke="#3a414a" fill="#3a414a"/><path d="M399.8 99.1a9.3 9.3 0 0 1 7.92-9.17L551.9 68.3a6.9 6.9 0 0 1 7.9 6.83V203.6a8 8 0 0 1-8 8h-144a8 8 0 0 1-8-8z" stroke="#cfe4ff" stroke-width="2" fill="#fff"/><use xlink:href="#e" transform="matrix(1,0,0,1,404.8089981463072,96.20795509207277) translate(27.111111111111114 19.46875)"/><use xlink:href="#h" transform="matrix(1,0,0,1,404.8089981463072,96.20795509207277) translate(69.72222222222223 19.46875)"/><use xlink:href="#i" transform="matrix(1,0,0,1,404.8089981463072,96.20795509207277) translate(17.388888888888886 48.26875)"/><use xlink:href="#j" transform="matrix(1,0,0,1,404.8089981463072,96.20795509207277) translate(75.61111111111111 48.26875)"/><use xlink:href="#k" transform="matrix(1,0,0,1,404.8089981463072,96.20795509207277) translate(109.38888888888889 48.26875)"/><use xlink:href="#l" transform="matrix(1,0,0,1,404.8089981463072,96.20795509207277) translate(25.91666666666667 77.06875)"/><use xlink:href="#m" transform="matrix(1,0,0,1,404.8089981463072,96.20795509207277) translate(95.25 77.06875)"/><use xlink:href="#n" transform="matrix(1,0,0,1,404.8089981463072,96.20795509207277) translate(0.9444444444444571 105.86874999999999)"/><use xlink:href="#o" transform="matrix(1,0,0,1,404.8089981463072,96.20795509207277) translate(63.66666666666668 105.86874999999999)"/><path d="M909 84.66a10 10 0 0 1 8.8-5.3h106c8.85 0 16 26.87 16 60 0 33.14-7.15 60-16 60h-106a10 10 0 0 1-8.8-5.3l-26.37-49.4a11.25 11.25 0 0 1 0-10.6z" stroke="#cfe4ff" stroke-width="2" fill="#fff"/><use xlink:href="#p" transform="matrix(1,0,0,1,884.8089981463072,84.36795509207276) translate(33.15932098765432 41.84027777777778)"/><use xlink:href="#q" transform="matrix(1,0,0,1,884.8089981463072,84.36795509207276) translate(49.88154320987654 73.84027777777777)"/><path d="M639.8 85.37a6 6 0 0 1 6-6h132a6 6 0 0 1 6 6v96c-24.04-17.04-39-17.04-48.1-17.04-14.4 0-33.54 17.04-47.94 17.04-8.93 0-24.05 0-47.95-17.04z" stroke="#cfe4ff" stroke-width="2" fill="#fff"/><path d="M647.8 94.37a6 6 0 0 1 6-6h132a6 6 0 0 1 6 6v96c-24.04-17.04-39-17.04-48.1-17.04-14.4 0-33.54 17.04-47.94 17.04-8.93 0-24.05 0-47.95-17.04z" stroke="#cfe4ff" stroke-width="2" fill="#fff"/><path d="M655.8 103.37a6 6 0 0 1 6-6h132a6 6 0 0 1 6 6v96c-24.04-17.04-39-17.04-48.1-17.04-14.4 0-33.54 17.04-47.94 17.04-8.93 0-24.05 0-47.95-17.04z" stroke="#cfe4ff" stroke-width="2" fill="#fff"/><use xlink:href="#r" transform="matrix(1,0,0,1,660.8089981463072,102.36795509207276) translate(21.561728395061728 20.12152777777778)"/><use xlink:href="#s" transform="matrix(1,0,0,1,660.8089981463072,102.36795509207276) translate(23.938271604938272 52.12152777777778)"/><path d="M801.3 139.37h62.62" stroke="#3a414a" fill="none"/><path d="M801.32 139.84h-.5v-.95h.5z" stroke="#3a414a" stroke-width=".05" fill="#3a414a"/><path d="M878.7 139.37L864.4 144v-9.27z" stroke="#3a414a" fill="#3a414a"/><path d="M-100.2 651.14h-32a8 8 0 0 1-8-8V239.82a8 8 0 0 1 8-8h32z" stroke="#000" stroke-width="2" fill="#6db1ff"/><path d="M-100.2 231.82h1152.4a8 8 0 0 1 8 8v403.32a8 8 0 0 1-8 8H-100.2z" stroke="#000" stroke-width="2" fill="none"/><use xlink:href="#t" transform="matrix(-1.8369701987210297e-16,-1,1,-1.8369701987210297e-16,-140.19100185369274,651.139803735048) translate(172.58333333333334 24)"/><use xlink:href="#b" transform="matrix(-1.8369701987210297e-16,-1,1,-1.8369701987210297e-16,-140.19100185369274,651.139803735048) translate(218.58333333333334 24)"/><path d="M-51.77 283.88A13.33 13.33 0 0 1-40 276.82h80a13.33 13.33 0 0 1 11.77 7.06l24.46 45.88a15 15 0 0 1 0 14.12l-24.47 45.88A13.33 13.33 0 0 1 40 396.82h-80a13.33 13.33 0 0 1-11.77-7.06l-24.46-45.88a15 15 0 0 1 0-14.12z" stroke="#cfe4ff" stroke-width="2" fill="#fff"/><use xlink:href="#u" transform="matrix(1,0,0,1,-74.9999999999994,281.8221566762245) translate(22.366111111111113 29.75)"/><use xlink:href="#v" transform="matrix(1,0,0,1,-74.9999999999994,281.8221566762245) translate(74.92166666666668 29.75)"/><use xlink:href="#w" transform="matrix(1,0,0,1,-74.9999999999994,281.8221566762245) translate(112.08833333333334 29.75)"/><use xlink:href="#x" transform="matrix(1,0,0,1,-74.9999999999994,281.8221566762245) translate(27.643888888888892 58.55)"/><use xlink:href="#k" transform="matrix(1,0,0,1,-74.9999999999994,281.8221566762245) translate(99.1438888888889 58.55)"/><use xlink:href="#y" transform="matrix(1,0,0,1,-74.9999999999994,281.8221566762245) translate(32.31055555555555 87.35)"/><path d="M160 284.82a8 8 0 0 1 8-8h144a8 8 0 0 1 8 8v104a8 8 0 0 1-8 8H168a8 8 0 0 1-8-8z" stroke="#1071e5" stroke-width="2" fill="#fff"/><path d="M176 276.82v120m128-120v120" stroke="#1071e5" stroke-width="2" fill="none"/><use xlink:href="#z" transform="matrix(1,0,0,1,185.00000000000057,281.8221566762245) translate(14.000000000000007 59)"/><path d="M79.5 336.82h63.12" stroke="#3a414a" fill="none"/><path d="M79.5 337.3H79l.02-.48-.02-.47h.53z" stroke="#3a414a" stroke-width=".05" fill="#3a414a"/><path d="M157.38 336.82l-14.26 4.64v-9.27z" stroke="#3a414a" fill="#3a414a"/><path d="M400 284.82a8 8 0 0 1 8-8h144a8 8 0 0 1 8 8v112c-26.72-20.04-43.36-20.04-53.44-20.04-16 0-37.28 20.04-53.28 20.04-9.92 0-26.72 0-53.28-20.04z" stroke="#cfe4ff" stroke-width="2" fill="#fff"/><use xlink:href="#A" transform="matrix(1,0,0,1,405.00000000000057,281.8221566762245) translate(4.305555555555557 18.8125)"/><use xlink:href="#B" transform="matrix(1,0,0,1,405.00000000000057,281.8221566762245) translate(66.91666666666667 18.8125)"/><use xlink:href="#C" transform="matrix(1,0,0,1,405.00000000000057,281.8221566762245) translate(27.638888888888886 47.6125)"/><use xlink:href="#D" transform="matrix(1,0,0,1,405.00000000000057,281.8221566762245) translate(86.86111111111111 47.6125)"/><use xlink:href="#E" transform="matrix(1,0,0,1,405.00000000000057,281.8221566762245) translate(12.611111111111114 76.4125)"/><use xlink:href="#F" transform="matrix(1,0,0,1,405.00000000000057,281.8221566762245) translate(90.77777777777777 76.4125)"/><path d="M321.5 336.82h61.12" stroke="#3a414a" fill="none"/><path d="M321.5 337.3h-.5v-.95h.5z" stroke="#3a414a" stroke-width=".05" fill="#3a414a"/><path d="M397.38 336.82l-14.26 4.64v-9.27z" stroke="#3a414a" fill="#3a414a"/><path d="M561.5 316.82h87.12" stroke="#3a414a" fill="none"/><path d="M561.5 317.3h-.5v-.95h.5z" stroke="#3a414a" stroke-width=".05" fill="#3a414a"/><path d="M663.38 316.82l-14.26 4.64v-9.27z" stroke="#3a414a" fill="#3a414a"/><path d="M713.6 281.62a10.67 10.67 0 0 1 12.8 0l67.2 50.4a6 6 0 0 1 0 9.6l-67.2 50.4a10.67 10.67 0 0 1-12.8 0l-67.2-50.4a6 6 0 0 1 0-9.6z" stroke="#cfe4ff" stroke-width="2" fill="#fff"/><use xlink:href="#G" transform="matrix(1,0,0,1,645.0000000000006,281.8221566762245) translate(67.81055555555555 26.3125)"/><use xlink:href="#H" transform="matrix(1,0,0,1,645.0000000000006,281.8221566762245) translate(25.94944444444445 55.1125)"/><use xlink:href="#I" transform="matrix(1,0,0,1,645.0000000000006,281.8221566762245) translate(55.33833333333334 55.1125)"/><use xlink:href="#J" transform="matrix(1,0,0,1,645.0000000000006,281.8221566762245) translate(43.949444444444445 83.9125)"/><path d="M600.8 357.3H577.4v-.95h23.43zm63.7 0h-39.3v-.95h39.3z" stroke="#e81313" stroke-width=".05" fill="#e81313"/><path d="M665.63 357.3h-1.14v-.86z" fill="#e81313"/><path stroke="#e81313" stroke-width=".05" fill="#e81313"/><path d="M576.88 361.46l-14.26-4.64 14.26-4.63z" fill="#e81313"/><path d="M577.36 362.1l-16.28-5.28 16.28-5.3zm-13.2-5.28l12.25 3.98v-7.96z" stroke="#e81313" stroke-width=".05" fill="#e81313"/><use xlink:href="#K" transform="matrix(1,0,0,1,600.8055548889091,344.8221566762245) translate(0.005000000000000782 16)"/><path d="M357.84 450.63H12.02l-1.82.14-1.76.43-1.67.7-1.54.93L3.85 454l-1.17 1.38-.95 1.54-.7 1.68-.4 1.75-.16 1.82v1.93h-.94v-1.96l.15-1.94.45-1.9.75-1.8 1.03-1.68 1.28-1.5 1.5-1.26 1.66-1.02 1.8-.75 1.9-.47 1.94-.15h345.86zm362.64-12.46l-.16 1.94-.45 1.9-.75 1.82-1.03 1.67-1.28 1.48-1.5 1.27-1.66 1.02-1.8.75-1.9.46-1.94.15H386.84v-.95h321.14l1.82-.14 1.76-.43 1.67-.68 1.54-.94 1.38-1.18 1.17-1.37.95-1.54.7-1.68.4-1.76.15-1.82v-42.48h.96z" stroke="#008a0e" stroke-width=".05" fill="#008a0e"/><path d="M720 395.16l.48-.03v.54h-.96v-.54z" fill="#008a0e"/><path stroke="#008a0e" stroke-width=".05" fill="#008a0e"/><path d="M0 478.86l-4.63-14.26h9.27z" fill="#008a0e"/><path d="M0 480.4l-5.3-16.28H5.3zm-3.98-15.33L0 477.33l3.98-12.26z" stroke="#008a0e" stroke-width=".05" fill="#008a0e"/><use xlink:href="#L" transform="matrix(1,0,0,1,357.8362032880628,438.1554900095578) translate(0.005000000000000782 16)"/><path d="M-80 489.48a8 8 0 0 1 8-8H72a8 8 0 0 1 8 8v104a8 8 0 0 1-8 8H-72a8 8 0 0 1-8-8z" stroke="#1071e5" stroke-width="2" fill="#fff"/><path d="M-64 481.48v120m128-120v120" stroke="#1071e5" stroke-width="2" fill="none"/><use xlink:href="#M" transform="matrix(1,0,0,1,-54.9999999999994,486.48098020563623) translate(8.805555555555564 59)"/><path d="M81.5 541.48h61.12" stroke="#3a414a" fill="none"/><path d="M81.5 541.96H81V541h.5z" stroke="#3a414a" stroke-width=".05" fill="#3a414a"/><path d="M157.38 541.48l-14.26 4.64v-9.27z" stroke="#3a414a" fill="#3a414a"/><path d="M160 484.82a8 8 0 0 1 8-8h128a8 8 0 0 1 8 8v101.92c-24.05-18.35-39.02-18.35-48.1-18.35-14.4 0-33.55 18.34-47.95 18.34-8.93 0-24.05 0-47.95-18.35z" stroke="#cfe4ff" stroke-width="2" fill="#fff"/><path d="M168 494.52a8 8 0 0 1 8-8h128a8 8 0 0 1 8 8v101.92c-24.05-18.36-39.02-18.36-48.1-18.36-14.4 0-33.55 18.36-47.95 18.36-8.93 0-24.05 0-47.95-18.36z" stroke="#cfe4ff" stroke-width="2" fill="#fff"/><path d="M176 504.22a8 8 0 0 1 8-8h128a8 8 0 0 1 8 8v101.92c-24.05-18.36-39.02-18.36-48.1-18.36-14.4 0-33.55 18.36-47.95 18.36-8.93 0-24.05 0-47.95-18.36z" stroke="#cfe4ff" stroke-width="2" fill="#fff"/><use xlink:href="#A" transform="matrix(1,0,0,1,181.00000000000057,501.219803735048) translate(3.555555555555557 16.200000000000003)"/><use xlink:href="#N" transform="matrix(1,0,0,1,181.00000000000057,501.219803735048) translate(66.16666666666667 16.200000000000003)"/><use xlink:href="#O" transform="matrix(1,0,0,1,181.00000000000057,501.219803735048) translate(25.694444444444443 45)"/><use xlink:href="#P" transform="matrix(1,0,0,1,181.00000000000057,501.219803735048) translate(82.86111111111111 45)"/><use xlink:href="#Q" transform="matrix(1,0,0,1,181.00000000000057,501.219803735048) translate(40.388888888888886 73.8)"/><path d="M321.5 541.48h61.12" stroke="#3a414a" fill="none"/><path d="M321.5 541.96h-.5V541h.5z" stroke="#3a414a" stroke-width=".05" fill="#3a414a"/><path d="M397.38 541.48l-14.26 4.64v-9.27z" stroke="#3a414a" fill="#3a414a"/><path d="M400 489.48a8 8 0 0 1 8-8h144a8 8 0 0 1 8 8v104a8 8 0 0 1-8 8H408a8 8 0 0 1-8-8z" stroke="#1071e5" stroke-width="2" fill="#fff"/><path d="M416 481.48v120m128-120v120" stroke="#1071e5" stroke-width="2" fill="none"/><use xlink:href="#R" transform="matrix(1,0,0,1,425.00000000000057,486.48098020563623) translate(36.69444444444444 59)"/><path d="M561.5 541.48h61.12" stroke="#3a414a" fill="none"/><path d="M561.5 541.96h-.5V541h.5z" stroke="#3a414a" stroke-width=".05" fill="#3a414a"/><path d="M637.38 541.48l-14.26 4.64v-9.27z" stroke="#3a414a" fill="#3a414a"/><path d="M640 489.48a8 8 0 0 1 8-8h144a8 8 0 0 1 8 8v104a8 8 0 0 1-8 8H648a8 8 0 0 1-8-8z" stroke="#1071e5" stroke-width="2" fill="#fff"/><path d="M656 481.48v120m128-120v120" stroke="#1071e5" stroke-width="2" fill="none"/><use xlink:href="#S" transform="matrix(1,0,0,1,665.0000000000006,486.48098020563623) translate(0.6666666666666643 59)"/><path d="M801.5 541.48h61.12" stroke="#3a414a" fill="none"/><path d="M801.5 541.96h-.5V541h.5z" stroke="#3a414a" stroke-width=".05" fill="#3a414a"/><path d="M877.38 541.48l-14.26 4.64v-9.27z" stroke="#3a414a" fill="#3a414a"/><path d="M880 481.48c26.56 19.92 43.36 19.92 53.28 19.92 16 0 37.28-19.92 53.28-19.92 10.08 0 26.72 0 53.44 19.92v100.08c-26.72-20.04-43.36-20.04-53.44-20.04-16 0-37.28 20.04-53.28 20.04-9.92 0-26.72 0-53.28-20.04z" stroke="#cfe4ff" stroke-width="2" fill="#fff"/><use xlink:href="#T" transform="matrix(1,0,0,1,885.0000000000005,486.48098020563623) translate(24.555555555555564 43.5)"/><use xlink:href="#U" transform="matrix(1,0,0,1,885.0000000000005,486.48098020563623) translate(49.44444444444444 72.3)"/><path d="M960 489.95V414.2" stroke="#3a414a" fill="none"/><path d="M960.48 490.2l-.96.5v-.76h.96z" stroke="#3a414a" stroke-width=".05" fill="#3a414a"/><path d="M960 399.44l4.63 14.27h-9.26z" stroke="#3a414a" fill="#3a414a"/><path d="M1040 276.82c-8.84 0-16 26.87-16 60 0 33.14 7.16 60 16 60H896c-8.84 0-16-26.86-16-60 0-33.13 7.16-60 16-60z" stroke="#cfe4ff" stroke-width="2" fill="#fff"/><use xlink:href="#V" transform="matrix(1,0,0,1,885.0000000000005,281.8221566762245) translate(17.16666666666668 60.6875)"/><use xlink:href="#W" transform="matrix(1,0,0,1,885.0000000000005,281.8221566762245) translate(88.61111111111111 60.6875)"/><path d="M266.67 398.32v46.83c-2.77 0-5 2.24-5 5 0 2.77 2.23 5 5 5v4.3" stroke="#3a414a" fill="none"/><path d="M267.14 398.33h-.95v-.5h.94z" stroke="#3a414a" stroke-width=".05" fill="#3a414a"/><path d="M266.67 474.2l-4.64-14.26h9.27z" stroke="#3a414a" fill="#3a414a"/><path d="M0 398.32v13.17a12 12 0 0 0 12 12h190.5a10.83 10.83 0 0 1 10.83 10.82v10.83c-2.76 0-5 2.24-5 5 0 2.77 2.24 5 5 5v4.3" stroke="#3a414a" fill="none"/><path d="M.47 398.33h-.94v-.5h.94z" stroke="#3a414a" stroke-width=".05" fill="#3a414a"/><path d="M213.33 474.2l-4.63-14.26h9.27z" stroke="#3a414a" fill="#3a414a"/><path d="M-100.2 651.14h-32a8 8 0 0 1-8-8V239.82a8 8 0 0 1 8-8h32z" stroke="#000" stroke-width="2" fill="#6db1ff"/><path d="M-100.2 231.82h1152.4a8 8 0 0 1 8 8v403.32a8 8 0 0 1-8 8H-100.2z" stroke="#000" stroke-width="2" fill="none"/><use xlink:href="#t" transform="matrix(-1.8369701987210297e-16,-1,1,-1.8369701987210297e-16,-140.19100185369274,651.139803735048) translate(172.58333333333334 24)"/><use xlink:href="#b" transform="matrix(-1.8369701987210297e-16,-1,1,-1.8369701987210297e-16,-140.19100185369274,651.139803735048) translate(218.58333333333334 24)"/><path d="M-51.77 283.88A13.33 13.33 0 0 1-40 276.82h80a13.33 13.33 0 0 1 11.77 7.06l24.46 45.88a15 15 0 0 1 0 14.12l-24.47 45.88A13.33 13.33 0 0 1 40 396.82h-80a13.33 13.33 0 0 1-11.77-7.06l-24.46-45.88a15 15 0 0 1 0-14.12z" stroke="#cfe4ff" stroke-width="2" fill="#fff"/><use xlink:href="#u" transform="matrix(1,0,0,1,-74.9999999999994,281.8221566762245) translate(22.366111111111113 29.75)"/><use xlink:href="#v" transform="matrix(1,0,0,1,-74.9999999999994,281.8221566762245) translate(74.92166666666668 29.75)"/><use xlink:href="#w" transform="matrix(1,0,0,1,-74.9999999999994,281.8221566762245) translate(112.08833333333334 29.75)"/><use xlink:href="#x" transform="matrix(1,0,0,1,-74.9999999999994,281.8221566762245) translate(27.643888888888892 58.55)"/><use xlink:href="#k" transform="matrix(1,0,0,1,-74.9999999999994,281.8221566762245) translate(99.1438888888889 58.55)"/><use xlink:href="#y" transform="matrix(1,0,0,1,-74.9999999999994,281.8221566762245) translate(32.31055555555555 87.35)"/><path d="M160 284.82a8 8 0 0 1 8-8h144a8 8 0 0 1 8 8v104a8 8 0 0 1-8 8H168a8 8 0 0 1-8-8z" stroke="#1071e5" stroke-width="2" fill="#fff"/><path d="M176 276.82v120m128-120v120" stroke="#1071e5" stroke-width="2" fill="none"/><use xlink:href="#z" transform="matrix(1,0,0,1,185.00000000000057,281.8221566762245) translate(14.000000000000007 59)"/><path d="M79.5 336.82h63.12" stroke="#3a414a" fill="none"/><path d="M79.5 337.3H79l.02-.48-.02-.47h.53z" stroke="#3a414a" stroke-width=".05" fill="#3a414a"/><path d="M157.38 336.82l-14.26 4.64v-9.27z" stroke="#3a414a" fill="#3a414a"/><path d="M400 284.82a8 8 0 0 1 8-8h144a8 8 0 0 1 8 8v112c-26.72-20.04-43.36-20.04-53.44-20.04-16 0-37.28 20.04-53.28 20.04-9.92 0-26.72 0-53.28-20.04z" stroke="#cfe4ff" stroke-width="2" fill="#fff"/><use xlink:href="#A" transform="matrix(1,0,0,1,405.00000000000057,281.8221566762245) translate(4.305555555555557 18.8125)"/><use xlink:href="#B" transform="matrix(1,0,0,1,405.00000000000057,281.8221566762245) translate(66.91666666666667 18.8125)"/><use xlink:href="#C" transform="matrix(1,0,0,1,405.00000000000057,281.8221566762245) translate(27.638888888888886 47.6125)"/><use xlink:href="#D" transform="matrix(1,0,0,1,405.00000000000057,281.8221566762245) translate(86.86111111111111 47.6125)"/><use xlink:href="#E" transform="matrix(1,0,0,1,405.00000000000057,281.8221566762245) translate(12.611111111111114 76.4125)"/><use xlink:href="#F" transform="matrix(1,0,0,1,405.00000000000057,281.8221566762245) translate(90.77777777777777 76.4125)"/><path d="M321.5 336.82h61.12" stroke="#3a414a" fill="none"/><path d="M321.5 337.3h-.5v-.95h.5z" stroke="#3a414a" stroke-width=".05" fill="#3a414a"/><path d="M397.38 336.82l-14.26 4.64v-9.27z" stroke="#3a414a" fill="#3a414a"/><path d="M561.5 316.82h87.12" stroke="#3a414a" fill="none"/><path d="M561.5 317.3h-.5v-.95h.5z" stroke="#3a414a" stroke-width=".05" fill="#3a414a"/><path d="M663.38 316.82l-14.26 4.64v-9.27z" stroke="#3a414a" fill="#3a414a"/><path d="M713.6 281.62a10.67 10.67 0 0 1 12.8 0l67.2 50.4a6 6 0 0 1 0 9.6l-67.2 50.4a10.67 10.67 0 0 1-12.8 0l-67.2-50.4a6 6 0 0 1 0-9.6z" stroke="#cfe4ff" stroke-width="2" fill="#fff"/><use xlink:href="#G" transform="matrix(1,0,0,1,645.0000000000006,281.8221566762245) translate(67.81055555555555 26.3125)"/><use xlink:href="#H" transform="matrix(1,0,0,1,645.0000000000006,281.8221566762245) translate(25.94944444444445 55.1125)"/><use xlink:href="#I" transform="matrix(1,0,0,1,645.0000000000006,281.8221566762245) translate(55.33833333333334 55.1125)"/><use xlink:href="#J" transform="matrix(1,0,0,1,645.0000000000006,281.8221566762245) translate(43.949444444444445 83.9125)"/><path d="M600.8 357.3H577.4v-.95h23.43zm63.7 0h-39.3v-.95h39.3z" stroke="#e81313" stroke-width=".05" fill="#e81313"/><path d="M665.63 357.3h-1.14v-.86z" fill="#e81313"/><path stroke="#e81313" stroke-width=".05" fill="#e81313"/><path d="M576.88 361.46l-14.26-4.64 14.26-4.63z" fill="#e81313"/><path d="M577.36 362.1l-16.28-5.28 16.28-5.3zm-13.2-5.28l12.25 3.98v-7.96z" stroke="#e81313" stroke-width=".05" fill="#e81313"/><g><use xlink:href="#K" transform="matrix(1,0,0,1,600.8055548889091,344.8221566762245) translate(0.005000000000000782 16)"/></g><path d="M357.84 450.63H12.02l-1.82.14-1.76.43-1.67.7-1.54.93L3.85 454l-1.17 1.38-.95 1.54-.7 1.68-.4 1.75-.16 1.82v1.93h-.94v-1.96l.15-1.94.45-1.9.75-1.8 1.03-1.68 1.28-1.5 1.5-1.26 1.66-1.02 1.8-.75 1.9-.47 1.94-.15h345.86zm362.64-12.46l-.16 1.94-.45 1.9-.75 1.82-1.03 1.67-1.28 1.48-1.5 1.27-1.66 1.02-1.8.75-1.9.46-1.94.15H386.84v-.95h321.14l1.82-.14 1.76-.43 1.67-.68 1.54-.94 1.38-1.18 1.17-1.37.95-1.54.7-1.68.4-1.76.15-1.82v-42.48h.96z" stroke="#008a0e" stroke-width=".05" fill="#008a0e"/><path d="M720 395.16l.48-.03v.54h-.96v-.54z" fill="#008a0e"/><path stroke="#008a0e" stroke-width=".05" fill="#008a0e"/><path d="M0 478.86l-4.63-14.26h9.27z" fill="#008a0e"/><path d="M0 480.4l-5.3-16.28H5.3zm-3.98-15.33L0 477.33l3.98-12.26z" stroke="#008a0e" stroke-width=".05" fill="#008a0e"/><g><use xlink:href="#L" transform="matrix(1,0,0,1,357.8362032880628,438.1554900095578) translate(0.005000000000000782 16)"/></g><path d="M-80 489.48a8 8 0 0 1 8-8H72a8 8 0 0 1 8 8v104a8 8 0 0 1-8 8H-72a8 8 0 0 1-8-8z" stroke="#1071e5" stroke-width="2" fill="#fff"/><path d="M-64 481.48v120m128-120v120" stroke="#1071e5" stroke-width="2" fill="none"/><g><use xlink:href="#M" transform="matrix(1,0,0,1,-54.9999999999994,486.48098020563623) translate(8.805555555555564 59)"/></g><path d="M81.5 541.48h61.12" stroke="#3a414a" fill="none"/><path d="M81.5 541.96H81V541h.5z" stroke="#3a414a" stroke-width=".05" fill="#3a414a"/><path d="M157.38 541.48l-14.26 4.64v-9.27z" stroke="#3a414a" fill="#3a414a"/><path d="M160 484.82a8 8 0 0 1 8-8h128a8 8 0 0 1 8 8v101.92c-24.05-18.35-39.02-18.35-48.1-18.35-14.4 0-33.55 18.34-47.95 18.34-8.93 0-24.05 0-47.95-18.35z" stroke="#cfe4ff" stroke-width="2" fill="#fff"/><path d="M168 494.52a8 8 0 0 1 8-8h128a8 8 0 0 1 8 8v101.92c-24.05-18.36-39.02-18.36-48.1-18.36-14.4 0-33.55 18.36-47.95 18.36-8.93 0-24.05 0-47.95-18.36z" stroke="#cfe4ff" stroke-width="2" fill="#fff"/><path d="M176 504.22a8 8 0 0 1 8-8h128a8 8 0 0 1 8 8v101.92c-24.05-18.36-39.02-18.36-48.1-18.36-14.4 0-33.55 18.36-47.95 18.36-8.93 0-24.05 0-47.95-18.36z" stroke="#cfe4ff" stroke-width="2" fill="#fff"/><g><use xlink:href="#A" transform="matrix(1,0,0,1,181.00000000000057,501.219803735048) translate(3.555555555555557 16.200000000000003)"/><use xlink:href="#N" transform="matrix(1,0,0,1,181.00000000000057,501.219803735048) translate(66.16666666666667 16.200000000000003)"/><use xlink:href="#O" transform="matrix(1,0,0,1,181.00000000000057,501.219803735048) translate(25.694444444444443 45)"/><use xlink:href="#P" transform="matrix(1,0,0,1,181.00000000000057,501.219803735048) translate(82.86111111111111 45)"/><use xlink:href="#Q" transform="matrix(1,0,0,1,181.00000000000057,501.219803735048) translate(40.388888888888886 73.8)"/></g><path d="M321.5 541.48h61.12" stroke="#3a414a" fill="none"/><path d="M321.5 541.96h-.5V541h.5z" stroke="#3a414a" stroke-width=".05" fill="#3a414a"/><path d="M397.38 541.48l-14.26 4.64v-9.27z" stroke="#3a414a" fill="#3a414a"/><path d="M400 489.48a8 8 0 0 1 8-8h144a8 8 0 0 1 8 8v104a8 8 0 0 1-8 8H408a8 8 0 0 1-8-8z" stroke="#1071e5" stroke-width="2" fill="#fff"/><path d="M416 481.48v120m128-120v120" stroke="#1071e5" stroke-width="2" fill="none"/><g><use xlink:href="#R" transform="matrix(1,0,0,1,425.00000000000057,486.48098020563623) translate(36.69444444444444 59)"/></g><path d="M561.5 541.48h61.12" stroke="#3a414a" fill="none"/><path d="M561.5 541.96h-.5V541h.5z" stroke="#3a414a" stroke-width=".05" fill="#3a414a"/><path d="M637.38 541.48l-14.26 4.64v-9.27z" stroke="#3a414a" fill="#3a414a"/><path d="M640 489.48a8 8 0 0 1 8-8h144a8 8 0 0 1 8 8v104a8 8 0 0 1-8 8H648a8 8 0 0 1-8-8z" stroke="#1071e5" stroke-width="2" fill="#fff"/><path d="M656 481.48v120m128-120v120" stroke="#1071e5" stroke-width="2" fill="none"/><g><use xlink:href="#S" transform="matrix(1,0,0,1,665.0000000000006,486.48098020563623) translate(0.6666666666666643 59)"/></g><path d="M801.5 541.48h61.12" stroke="#3a414a" fill="none"/><path d="M801.5 541.96h-.5V541h.5z" stroke="#3a414a" stroke-width=".05" fill="#3a414a"/><path d="M877.38 541.48l-14.26 4.64v-9.27z" stroke="#3a414a" fill="#3a414a"/><path d="M880 481.48c26.56 19.92 43.36 19.92 53.28 19.92 16 0 37.28-19.92 53.28-19.92 10.08 0 26.72 0 53.44 19.92v100.08c-26.72-20.04-43.36-20.04-53.44-20.04-16 0-37.28 20.04-53.28 20.04-9.92 0-26.72 0-53.28-20.04z" stroke="#cfe4ff" stroke-width="2" fill="#fff"/><g><use xlink:href="#T" transform="matrix(1,0,0,1,885.0000000000005,486.48098020563623) translate(24.555555555555564 43.5)"/><use xlink:href="#U" transform="matrix(1,0,0,1,885.0000000000005,486.48098020563623) translate(49.44444444444444 72.3)"/></g><path d="M960 489.95V414.2" stroke="#3a414a" fill="none"/><path d="M960.48 490.2l-.96.5v-.76h.96z" stroke="#3a414a" stroke-width=".05" fill="#3a414a"/><path d="M960 399.44l4.63 14.27h-9.26z" stroke="#3a414a" fill="#3a414a"/><path d="M1040 276.82c-8.84 0-16 26.87-16 60 0 33.14 7.16 60 16 60H896c-8.84 0-16-26.86-16-60 0-33.13 7.16-60 16-60z" stroke="#cfe4ff" stroke-width="2" fill="#fff"/><g><use xlink:href="#V" transform="matrix(1,0,0,1,885.0000000000005,281.8221566762245) translate(17.16666666666668 60.6875)"/><use xlink:href="#W" transform="matrix(1,0,0,1,885.0000000000005,281.8221566762245) translate(88.61111111111111 60.6875)"/></g><path d="M266.67 398.32v46.83c-2.77 0-5 2.24-5 5 0 2.77 2.23 5 5 5v4.3" stroke="#3a414a" fill="none"/><path d="M267.14 398.33h-.95v-.5h.94z" stroke="#3a414a" stroke-width=".05" fill="#3a414a"/><path d="M266.67 474.2l-4.64-14.26h9.27z" stroke="#3a414a" fill="#3a414a"/><path d="M0 398.32v13.17a12 12 0 0 0 12 12h190.5a10.83 10.83 0 0 1 10.83 10.82v10.83c-2.76 0-5 2.24-5 5 0 2.77 2.24 5 5 5v4.3" stroke="#3a414a" fill="none"/><path d="M.47 398.33h-.94v-.5h.94z" stroke="#3a414a" stroke-width=".05" fill="#3a414a"/><path d="M213.33 474.2l-4.63-14.26h9.27z" stroke="#3a414a" fill="#3a414a"/><path d="M239.8 200.87a5.33 5.33 0 0 1-5.32 5.32H10.23a12 12 0 0 0-12 12v41.24" stroke="#3a414a" fill="none"/><path d="M240.28 200.88h-.95v-.5h.95z" stroke="#3a414a" stroke-width=".05" fill="#3a414a"/><path d="M-1.77 274.2l-4.64-14.26h9.26z" stroke="#3a414a" fill="#3a414a"/><path d="M561.3 139.37h27.5a12 12 0 0 1 12 12v80.84a12 12 0 0 0 12 12.02H708a12 12 0 0 1 12 12v5.88" stroke="#3a414a" fill="none"/><path d="M561.32 139.84h-.5v-.95h.5z" stroke="#3a414a" stroke-width=".05" fill="#3a414a"/><path d="M720 276.87l-4.63-14.27h9.26z" stroke="#3a414a" fill="#3a414a"/><path d="M960 275.32v-19.1a12 12 0 0 0-12-12H731.8a12 12 0 0 1-12-12v-20.44" stroke="#3a414a" fill="none"/><path d="M960.48 275.82h-.96v-.5h.96z" stroke="#3a414a" stroke-width=".05" fill="#3a414a"/><path d="M719.8 197.02l4.64 14.26h-9.27z" stroke="#3a414a" fill="#3a414a"/><path d="M480 275.32v-31a.1.1 0 0 0-.1-.1.1.1 0 0 1-.1-.1V229" stroke="#3a414a" fill="none"/><path d="M480.48 275.82h-.96v-.5h.96z" stroke="#3a414a" stroke-width=".05" fill="#3a414a"/><path d="M479.8 214.23l4.64 14.26h-9.27z" stroke="#3a414a" fill="#3a414a"/><path d="M-140.2-34a6 6 0 0 1 6-6H554a6 6 0 0 1 6 6v68a6 6 0 0 1-6 6h-688.2a6 6 0 0 1-6-6z" fill="none"/><g><use xlink:href="#X" transform="matrix(1,0,0,1,-140.1910018536928,-40) translate(13.833333333333314 50.66666666666667)"/><use xlink:href="#Y" transform="matrix(1,0,0,1,-140.1910018536928,-40) translate(225.38888888888894 50.66666666666667)"/><use xlink:href="#Z" transform="matrix(1,0,0,1,-140.1910018536928,-40) translate(436.3518518518519 50.66666666666667)"/></g><defs><path d="M75-106v92l39 5v9H13v-9l28-5v-208l-31-4v-10h177v57h-11l-6-38c-28-4-63-3-95-3v98h69l5-28h11v73h-11l-5-29H75" id="aa"/><path d="M57-145c16-10 35-24 60-25v45c-19 1-8-30-40-17l-20 6v124l29 4v8H7v-8l21-4v-141c-8-3-24 2-21-12h48" id="ab"/><path d="M90-170c52 0 76 32 76 87 0 54-24 87-77 87-51 0-75-34-75-87 0-54 24-87 76-87zM89-10c39 0 46-35 46-73 0-39-7-73-46-73-39 1-44 34-44 73s6 72 44 73" id="ac"/><path d="M125-118c4-37-41-34-68-26v132l23 4v8H8C5-13 21-9 28-12v-141c-7-3-23 1-20-12h47l2 13c31-23 98-29 98 31v109c7 3 23-1 20 12h-72v-8l22-4v-106" id="ad"/><path d="M54-38c-1 25 24 26 44 20v12C71 10 25 9 25-35v-115H4c-2-14 14-10 21-15l18-38h11v38h38v15H54v112" id="ae"/><g id="a"><use transform="matrix(0.05555555555555555,0,0,0.05555555555555555,0,0)" xlink:href="#aa"/><use transform="matrix(0.05555555555555555,0,0,0.05555555555555555,11.11111111111111,0)" xlink:href="#ab"/><use transform="matrix(0.05555555555555555,0,0,0.05555555555555555,17.72222222222222,0)" xlink:href="#ac"/><use transform="matrix(0.05555555555555555,0,0,0.05555555555555555,27.72222222222222,0)" xlink:href="#ad"/><use transform="matrix(0.05555555555555555,0,0,0.05555555555555555,37.72222222222222,0)" xlink:href="#ae"/></g><path d="M84-170c49 0 66 33 63 87H46c-8 60 38 80 95 63v10C128-2 108 4 88 4 34 4 14-29 14-84c-1-54 22-86 70-86zm33 73c12-57-57-82-69-24-1 7-2 15-2 24h71" id="af"/><path d="M13-81c0-71 46-101 114-85l-1-72-28-4v-8h57v238c8 3 24-2 21 12h-47l-2-12C80 23 13-1 13-81zm77-74c-37 1-44 33-45 74 0 38 9 66 45 66 14 0 27-3 36-7v-130c-10-1-24-3-36-3" id="ag"/><g id="b"><use transform="matrix(0.05555555555555555,0,0,0.05555555555555555,0,0)" xlink:href="#af"/><use transform="matrix(0.05555555555555555,0,0,0.05555555555555555,8.833333333333332,0)" xlink:href="#ad"/><use transform="matrix(0.05555555555555555,0,0,0.05555555555555555,18.833333333333332,0)" xlink:href="#ag"/></g><path d="M81-9v9H4v-9l26-5 81-224h33l83 224 30 5v9h-99v-9l31-5-23-68H73L49-14zm38-203L78-98h82" id="ah"/><path d="M166-85c3 67-44 102-111 85l1 64 29 4v9H6v-9l21-4v-217c-7-3-22 1-19-12h46l1 9c11-8 26-14 45-14 47 2 64 36 66 85zM56-13c53 14 83-14 78-72 7-53-33-79-78-60v132" id="ai"/><path d="M65-12l28 4v8H7v-8l28-4v-226l-28-4v-8h58v238" id="aj"/><path d="M47-200c-23 0-25-39 0-38 13 0 18 7 20 19-1 11-8 19-20 19zM65-12l28 4v8H8v-8l28-4v-141l-24-4v-8h53v153" id="ak"/><path d="M45-84c0 64 52 80 104 63 1 25-30 25-55 25-56 0-80-32-80-88 0-76 62-98 131-80v46h-10c-5-15-4-31-23-35-47-10-67 21-67 69" id="al"/><path d="M32-163c41-10 102-14 102 39v112c8 3 24-2 21 12h-45l-4-17C83 13 3 13 13-46c-2-50 45-50 92-51 4-36-5-70-42-56-6 2-12 4-16 6-4 7 0 23-15 20v-36zM42-47c0 41 41 33 63 22v-59c-34 1-63-1-63 37" id="am"/><g id="c"><use transform="matrix(0.05555555555555555,0,0,0.05555555555555555,0,0)" xlink:href="#ah"/><use transform="matrix(0.05555555555555555,0,0,0.05555555555555555,14.388888888888888,0)" xlink:href="#ai"/><use transform="matrix(0.05555555555555555,0,0,0.05555555555555555,24.388888888888886,0)" xlink:href="#ai"/><use transform="matrix(0.05555555555555555,0,0,0.05555555555555555,34.388888888888886,0)" xlink:href="#aj"/><use transform="matrix(0.05555555555555555,0,0,0.05555555555555555,39.94444444444444,0)" xlink:href="#ak"/><use transform="matrix(0.05555555555555555,0,0,0.05555555555555555,45.5,0)" xlink:href="#al"/><use transform="matrix(0.05555555555555555,0,0,0.05555555555555555,54.33333333333333,0)" xlink:href="#am"/><use transform="matrix(0.05555555555555555,0,0,0.05555555555555555,63.166666666666664,0)" xlink:href="#ae"/><use transform="matrix(0.05555555555555555,0,0,0.05555555555555555,68.72222222222221,0)" xlink:href="#ak"/><use transform="matrix(0.05555555555555555,0,0,0.05555555555555555,74.27777777777777,0)" xlink:href="#ac"/><use transform="matrix(0.05555555555555555,0,0,0.05555555555555555,84.27777777777777,0)" xlink:href="#ad"/></g><path d="M41-130c7 48 86 23 86 84 0 56-69 57-112 41v-40c20 0 9 29 31 31 35 19 77-26 41-50-27-18-72-13-72-59 0-50 58-52 100-41v36c-19 1-8-25-28-25-21-7-50-1-46 23" id="an"/><g id="d"><use transform="matrix(0.05555555555555555,0,0,0.05555555555555555,0,0)" xlink:href="#an"/><use transform="matrix(0.05555555555555555,0,0,0.05555555555555555,7.777777777777778,0)" xlink:href="#ae"/><use transform="matrix(0.05555555555555555,0,0,0.05555555555555555,13.333333333333332,0)" xlink:href="#am"/><use transform="matrix(0.05555555555555555,0,0,0.05555555555555555,22.166666666666664,0)" xlink:href="#ab"/><use transform="matrix(0.05555555555555555,0,0,0.05555555555555555,28.777777777777775,0)" xlink:href="#ae"/></g><path d="M134-16c44-1 70-21 70-64v-142l-32-4v-10h80v10l-30 4v141c0 57-33 84-91 85-58 0-93-26-93-82v-144l-30-4v-10h94v10l-30 4c7 82-31 209 62 206" id="ao"/><g id="e"><use transform="matrix(0.05555555555555555,0,0,0.05555555555555555,0,0)" xlink:href="#ao"/><use transform="matrix(0.05555555555555555,0,0,0.05555555555555555,14.388888888888888,0)" xlink:href="#an"/><use transform="matrix(0.05555555555555555,0,0,0.05555555555555555,22.166666666666664,0)" xlink:href="#af"/><use transform="matrix(0.05555555555555555,0,0,0.05555555555555555,31,0)" xlink:href="#ab"/></g><path d="M124-13C89 8 26 15 26-45v-108c-8-3-24 2-21-12h50v118c-3 37 42 32 69 25v-131l-25-4v-8h54v153c8 3 24-2 21 12h-48" id="ap"/><g id="f"><use transform="matrix(0.05555555555555555,0,0,0.05555555555555555,0,0)" xlink:href="#ap"/><use transform="matrix(0.05555555555555555,0,0,0.05555555555555555,10,0)" xlink:href="#ai"/><use transform="matrix(0.05555555555555555,0,0,0.05555555555555555,20,0)" xlink:href="#aj"/><use transform="matrix(0.05555555555555555,0,0,0.05555555555555555,25.555555555555557,0)" xlink:href="#ac"/><use transform="matrix(0.05555555555555555,0,0,0.05555555555555555,35.55555555555556,0)" xlink:href="#am"/><use transform="matrix(0.05555555555555555,0,0,0.05555555555555555,44.388888888888886,0)" xlink:href="#ag"/><use transform="matrix(0.05555555555555555,0,0,0.05555555555555555,54.388888888888886,0)" xlink:href="#an"/></g><path d="M164-154L98 4H85L17-153c-7-3-20 0-17-12h77v8l-26 4L99-38l46-115-26-4v-8h61v8" id="aq"/><g id="g"><use transform="matrix(0.05555555555555555,0,0,0.05555555555555555,0,0)" xlink:href="#aq"/><use transform="matrix(0.05555555555555555,0,0,0.05555555555555555,10,0)" xlink:href="#ak"/><use transform="matrix(0.05555555555555555,0,0,0.05555555555555555,15.555555555555555,0)" xlink:href="#ag"/><use transform="matrix(0.05555555555555555,0,0,0.05555555555555555,25.555555555555557,0)" xlink:href="#af"/><use transform="matrix(0.05555555555555555,0,0,0.05555555555555555,34.388888888888886,0)" xlink:href="#ac"/></g><g id="h"><use transform="matrix(0.05555555555555555,0,0,0.05555555555555555,0,0)" xlink:href="#an"/><use transform="matrix(0.05555555555555555,0,0,0.05555555555555555,7.777777777777778,0)" xlink:href="#af"/><use transform="matrix(0.05555555555555555,0,0,0.05555555555555555,16.61111111111111,0)" xlink:href="#aj"/><use transform="matrix(0.05555555555555555,0,0,0.05555555555555555,22.166666666666664,0)" xlink:href="#af"/><use transform="matrix(0.05555555555555555,0,0,0.05555555555555555,31,0)" xlink:href="#al"/><use transform="matrix(0.05555555555555555,0,0,0.05555555555555555,39.83333333333333,0)" xlink:href="#ae"/><use transform="matrix(0.05555555555555555,0,0,0.05555555555555555,45.388888888888886,0)" xlink:href="#an"/></g><g id="i"><use transform="matrix(0.05555555555555555,0,0,0.05555555555555555,0,0)" xlink:href="#ai"/><use transform="matrix(0.05555555555555555,0,0,0.05555555555555555,10,0)" xlink:href="#af"/><use transform="matrix(0.05555555555555555,0,0,0.05555555555555555,18.833333333333332,0)" xlink:href="#ab"/><use transform="matrix(0.05555555555555555,0,0,0.05555555555555555,25.444444444444443,0)" xlink:href="#an"/><use transform="matrix(0.05555555555555555,0,0,0.05555555555555555,33.22222222222222,0)" xlink:href="#ac"/><use transform="matrix(0.05555555555555555,0,0,0.05555555555555555,43.22222222222222,0)" xlink:href="#ad"/></g><path d="M77-14l30 5v9H13v-9l30-5v-208l-30-4v-10h94v10l-30 4v208" id="ar"/><path d="M75-17c87 13 134-18 134-103 0-78-51-106-134-100v203zm171-102C246 5 139 7 10 0v-9l31-5v-208l-31-4v-10h107c82 0 129 35 129 117" id="as"/><g id="j"><use transform="matrix(0.05555555555555555,0,0,0.05555555555555555,0,0)" xlink:href="#ar"/><use transform="matrix(0.05555555555555555,0,0,0.05555555555555555,6.611111111111111,0)" xlink:href="#as"/><use transform="matrix(0.05555555555555555,0,0,0.05555555555555555,21,0)" xlink:href="#an"/></g><path d="M103-236c-39-15-35 32-34 71h44v15H69v136l35 6v8H15v-8l25-6v-136H11v-9l29-7c-6-59 23-100 80-84v36c-15 2-12-14-17-22" id="at"/><g id="k"><use transform="matrix(0.05555555555555555,0,0,0.05555555555555555,0,0)" xlink:href="#at"/><use transform="matrix(0.05555555555555555,0,0,0.05555555555555555,6.611111111111111,0)" xlink:href="#ac"/><use transform="matrix(0.05555555555555555,0,0,0.05555555555555555,16.61111111111111,0)" xlink:href="#ab"/></g><path d="M161-154L85 37C75 66 49 86 8 75V39c18-2 6 24 29 21 30-4 38-32 47-58L21-153c-7-3-20 0-17-12h77v8l-26 4 45 116 43-116-26-4v-8h62v8" id="au"/><g id="l"><use transform="matrix(0.05555555555555555,0,0,0.05555555555555555,0,0)" xlink:href="#am"/><use transform="matrix(0.05555555555555555,0,0,0.05555555555555555,8.833333333333332,0)" xlink:href="#ad"/><use transform="matrix(0.05555555555555555,0,0,0.05555555555555555,18.833333333333332,0)" xlink:href="#am"/><use transform="matrix(0.05555555555555555,0,0,0.05555555555555555,27.666666666666664,0)" xlink:href="#aj"/><use transform="matrix(0.05555555555555555,0,0,0.05555555555555555,33.22222222222222,0)" xlink:href="#au"/><use transform="matrix(0.05555555555555555,0,0,0.05555555555555555,43.22222222222222,0)" xlink:href="#an"/><use transform="matrix(0.05555555555555555,0,0,0.05555555555555555,51,0)" xlink:href="#ak"/><use transform="matrix(0.05555555555555555,0,0,0.05555555555555555,56.55555555555556,0)" xlink:href="#an"/></g><g id="m"><use transform="matrix(0.05555555555555555,0,0,0.05555555555555555,0,0)" xlink:href="#am"/><use transform="matrix(0.05555555555555555,0,0,0.05555555555555555,8.833333333333332,0)" xlink:href="#ad"/><use transform="matrix(0.05555555555555555,0,0,0.05555555555555555,18.833333333333332,0)" xlink:href="#ag"/></g><path d="M141-152c28 39 5 97-54 97-9 0-20-2-27-3L49-35c29 22 130-14 124 52-4 45-38 57-88 61C21 83-8 26 45-2 33-6 22-15 21-31l28-31c-19-9-28-26-28-51-2-51 53-65 100-52l38-20 7 8zM85 64c35 0 61-11 61-42 0-35-57-17-89-21-9 8-16 19-17 34 0 25 19 29 45 29zM52-113c1 26 7 46 35 44 28-1 34-16 35-44 0-26-6-43-34-43s-36 17-36 43" id="av"/><g id="n"><use transform="matrix(0.05555555555555555,0,0,0.05555555555555555,0,0)" xlink:href="#am"/><use transform="matrix(0.05555555555555555,0,0,0.05555555555555555,8.833333333333332,0)" xlink:href="#an"/><use transform="matrix(0.05555555555555555,0,0,0.05555555555555555,16.61111111111111,0)" xlink:href="#an"/><use transform="matrix(0.05555555555555555,0,0,0.05555555555555555,24.38888888888889,0)" xlink:href="#ak"/><use transform="matrix(0.05555555555555555,0,0,0.05555555555555555,29.944444444444443,0)" xlink:href="#av"/><use transform="matrix(0.05555555555555555,0,0,0.05555555555555555,39.94444444444444,0)" xlink:href="#ad"/><use transform="matrix(0.05555555555555555,0,0,0.05555555555555555,49.94444444444444,0)" xlink:href="#an"/></g><path d="M60-80l68-73c-7-3-20 0-17-12h58c3 13-13 9-20 12l-47 48 60 93c7 3 21-1 18 12h-68c-3-12 9-9 15-12L82-83 60-60v48c7 3 21-1 18 12H10v-8l21-4v-226l-24-4v-8h53v170" id="aw"/><path d="M126-118c4-37-42-32-68-25v131l24 4v8H8C5-13 21-9 28-12v-141c-7-3-23 1-20-12h48l1 13c22-15 77-30 92 2 32-22 104-36 104 29v109c8 3 24-2 21 12h-75v-8l25-4v-106c3-39-45-31-72-24 7 37 1 88 3 130l25 4v8h-78v-8l24-4v-106" id="ax"/><g id="o"><use transform="matrix(0.05555555555555555,0,0,0.05555555555555555,0,0)" xlink:href="#ad"/><use transform="matrix(0.05555555555555555,0,0,0.05555555555555555,10,0)" xlink:href="#ak"/><use transform="matrix(0.05555555555555555,0,0,0.05555555555555555,15.555555555555555,0)" xlink:href="#al"/><use transform="matrix(0.05555555555555555,0,0,0.05555555555555555,24.388888888888886,0)" xlink:href="#aw"/><use transform="matrix(0.05555555555555555,0,0,0.05555555555555555,34.388888888888886,0)" xlink:href="#ad"/><use transform="matrix(0.05555555555555555,0,0,0.05555555555555555,44.388888888888886,0)" xlink:href="#am"/><use transform="matrix(0.05555555555555555,0,0,0.05555555555555555,53.222222222222214,0)" xlink:href="#ax"/><use transform="matrix(0.05555555555555555,0,0,0.05555555555555555,68.77777777777777,0)" xlink:href="#af"/><use transform="matrix(0.05555555555555555,0,0,0.05555555555555555,77.6111111111111,0)" xlink:href="#an"/></g><g id="p"><use transform="matrix(0.06172839506172839,0,0,0.06172839506172839,0,0)" xlink:href="#ar"/><use transform="matrix(0.06172839506172839,0,0,0.06172839506172839,7.345679012345679,0)" xlink:href="#ad"/><use transform="matrix(0.06172839506172839,0,0,0.06172839506172839,18.45679012345679,0)" xlink:href="#ae"/><use transform="matrix(0.06172839506172839,0,0,0.06172839506172839,24.62962962962963,0)" xlink:href="#af"/><use transform="matrix(0.06172839506172839,0,0,0.06172839506172839,34.44444444444444,0)" xlink:href="#ab"/><use transform="matrix(0.06172839506172839,0,0,0.06172839506172839,41.79012345679012,0)" xlink:href="#am"/><use transform="matrix(0.06172839506172839,0,0,0.06172839506172839,51.60493827160494,0)" xlink:href="#al"/><use transform="matrix(0.06172839506172839,0,0,0.06172839506172839,61.41975308641975,0)" xlink:href="#ae"/><use transform="matrix(0.06172839506172839,0,0,0.06172839506172839,67.5925925925926,0)" xlink:href="#ak"/><use transform="matrix(0.06172839506172839,0,0,0.06172839506172839,73.76543209876543,0)" xlink:href="#aq"/><use transform="matrix(0.06172839506172839,0,0,0.06172839506172839,84.87654320987654,0)" xlink:href="#af"/></g><path d="M240-154L185 4h-14l-41-109L90 4H77L20-153c-7-3-23 1-20-12h79v8l-27 4L91-41l40-108h14l40 109 38-113-28-4v-8h63v8" id="ay"/><g id="q"><use transform="matrix(0.06172839506172839,0,0,0.06172839506172839,0,0)" xlink:href="#aq"/><use transform="matrix(0.06172839506172839,0,0,0.06172839506172839,11.11111111111111,0)" xlink:href="#ak"/><use transform="matrix(0.06172839506172839,0,0,0.06172839506172839,17.28395061728395,0)" xlink:href="#af"/><use transform="matrix(0.06172839506172839,0,0,0.06172839506172839,27.098765432098766,0)" xlink:href="#ay"/><use transform="matrix(0.06172839506172839,0,0,0.06172839506172839,43.08641975308642,0)" xlink:href="#af"/><use transform="matrix(0.06172839506172839,0,0,0.06172839506172839,52.901234567901234,0)" xlink:href="#ab"/></g><path d="M52-115c0 90 69 126 140 93v-67l-30-5v-9h87v9l-23 5v77c-27 8-56 16-90 16C59 2 15-37 15-115c-1-82 41-123 122-123 31 0 59 4 83 10v51h-12l-5-29c-15-12-38-18-65-18-66-1-86 42-86 109" id="az"/><g id="r"><use transform="matrix(0.06172839506172839,0,0,0.06172839506172839,0,0)" xlink:href="#az"/><use transform="matrix(0.06172839506172839,0,0,0.06172839506172839,15.987654320987653,0)" xlink:href="#af"/><use transform="matrix(0.06172839506172839,0,0,0.06172839506172839,25.80246913580247,0)" xlink:href="#ad"/><use transform="matrix(0.06172839506172839,0,0,0.06172839506172839,36.91358024691358,0)" xlink:href="#af"/><use transform="matrix(0.06172839506172839,0,0,0.06172839506172839,46.7283950617284,0)" xlink:href="#ab"/><use transform="matrix(0.06172839506172839,0,0,0.06172839506172839,54.074074074074076,0)" xlink:href="#am"/><use transform="matrix(0.06172839506172839,0,0,0.06172839506172839,63.8888888888889,0)" xlink:href="#ae"/><use transform="matrix(0.06172839506172839,0,0,0.06172839506172839,70.06172839506173,0)" xlink:href="#af"/></g><g id="s"><use transform="matrix(0.06172839506172839,0,0,0.06172839506172839,0,0)" xlink:href="#am"/><use transform="matrix(0.06172839506172839,0,0,0.06172839506172839,9.814814814814815,0)" xlink:href="#ad"/><use transform="matrix(0.06172839506172839,0,0,0.06172839506172839,20.925925925925924,0)" xlink:href="#am"/><use transform="matrix(0.06172839506172839,0,0,0.06172839506172839,30.74074074074074,0)" xlink:href="#aj"/><use transform="matrix(0.06172839506172839,0,0,0.06172839506172839,36.91358024691358,0)" xlink:href="#au"/><use transform="matrix(0.06172839506172839,0,0,0.06172839506172839,48.0246913580247,0)" xlink:href="#an"/><use transform="matrix(0.06172839506172839,0,0,0.06172839506172839,56.66666666666667,0)" xlink:href="#af"/><use transform="matrix(0.06172839506172839,0,0,0.06172839506172839,66.48148148148148,0)" xlink:href="#an"/></g><path d="M75-131c50 2 93 3 93-48 0-46-48-41-93-41v89zm0 115c55 4 111 6 111-51 0-53-58-48-111-48v99zm148-52C223 24 102-3 10 0v-9l31-5v-208l-31-4v-10c77 6 193-24 194 56 0 33-20 48-48 54 36 5 67 20 67 58" id="aA"/><g id="t"><use transform="matrix(0.05555555555555555,0,0,0.05555555555555555,0,0)" xlink:href="#aA"/><use transform="matrix(0.05555555555555555,0,0,0.05555555555555555,13.333333333333332,0)" xlink:href="#am"/><use transform="matrix(0.05555555555555555,0,0,0.05555555555555555,22.166666666666664,0)" xlink:href="#al"/><use transform="matrix(0.05555555555555555,0,0,0.05555555555555555,31,0)" xlink:href="#aw"/></g><path d="M256-236v10l-26 4L135 5h-9L31-222l-27-4v-10h95v10l-31 4 71 174 71-174-31-4v-10h77" id="aB"/><g id="u"><use transform="matrix(0.05555555555555555,0,0,0.05555555555555555,0,0)" xlink:href="#aB"/><use transform="matrix(0.05555555555555555,0,0,0.05555555555555555,13.166666666666666,0)" xlink:href="#ak"/><use transform="matrix(0.05555555555555555,0,0,0.05555555555555555,18.72222222222222,0)" xlink:href="#ag"/><use transform="matrix(0.05555555555555555,0,0,0.05555555555555555,28.72222222222222,0)" xlink:href="#af"/><use transform="matrix(0.05555555555555555,0,0,0.05555555555555555,37.55555555555556,0)" xlink:href="#ac"/></g><g id="v"><use transform="matrix(0.05555555555555555,0,0,0.05555555555555555,0,0)" xlink:href="#an"/><use transform="matrix(0.05555555555555555,0,0,0.05555555555555555,7.777777777777778,0)" xlink:href="#af"/><use transform="matrix(0.05555555555555555,0,0,0.05555555555555555,16.61111111111111,0)" xlink:href="#ad"/><use transform="matrix(0.05555555555555555,0,0,0.05555555555555555,26.61111111111111,0)" xlink:href="#ae"/></g><g id="w"><use transform="matrix(0.05555555555555555,0,0,0.05555555555555555,0,0)" xlink:href="#ae"/><use transform="matrix(0.05555555555555555,0,0,0.05555555555555555,5.555555555555555,0)" xlink:href="#ac"/></g><path d="M53-14c58 12 82-15 82-73 0-52-35-77-82-58v131zM89 4C64 4 42-2 24-9v-229l-24-4v-8h53l-1 94c48-33 114-4 114 69 0 57-23 91-77 91" id="aC"/><g id="x"><use transform="matrix(0.05555555555555555,0,0,0.05555555555555555,0,0)" xlink:href="#aC"/><use transform="matrix(0.05555555555555555,0,0,0.05555555555555555,10,0)" xlink:href="#am"/><use transform="matrix(0.05555555555555555,0,0,0.05555555555555555,18.833333333333332,0)" xlink:href="#al"/><use transform="matrix(0.05555555555555555,0,0,0.05555555555555555,27.666666666666664,0)" xlink:href="#aw"/><use transform="matrix(0.05555555555555555,0,0,0.05555555555555555,37.666666666666664,0)" xlink:href="#af"/><use transform="matrix(0.05555555555555555,0,0,0.05555555555555555,46.5,0)" xlink:href="#ad"/><use transform="matrix(0.05555555555555555,0,0,0.05555555555555555,56.5,0)" xlink:href="#ag"/></g><g id="y"><use transform="matrix(0.05555555555555555,0,0,0.05555555555555555,0,0)" xlink:href="#ai"/><use transform="matrix(0.05555555555555555,0,0,0.05555555555555555,10,0)" xlink:href="#ab"/><use transform="matrix(0.05555555555555555,0,0,0.05555555555555555,16.61111111111111,0)" xlink:href="#ac"/><use transform="matrix(0.05555555555555555,0,0,0.05555555555555555,26.61111111111111,0)" xlink:href="#al"/><use transform="matrix(0.05555555555555555,0,0,0.05555555555555555,35.44444444444444,0)" xlink:href="#af"/><use transform="matrix(0.05555555555555555,0,0,0.05555555555555555,44.27777777777777,0)" xlink:href="#an"/><use transform="matrix(0.05555555555555555,0,0,0.05555555555555555,52.05555555555555,0)" xlink:href="#an"/><use transform="matrix(0.05555555555555555,0,0,0.05555555555555555,59.83333333333333,0)" xlink:href="#ak"/><use transform="matrix(0.05555555555555555,0,0,0.05555555555555555,65.38888888888889,0)" xlink:href="#ad"/><use transform="matrix(0.05555555555555555,0,0,0.05555555555555555,75.38888888888889,0)" xlink:href="#av"/></g><path d="M52-115c0 93 80 130 150 87l7-35h11l-1 55c-23 7-52 12-83 12C60 4 19-37 15-115c-5-113 97-141 201-114l1 51h-12l-5-30c-15-9-39-16-62-16-66 0-86 41-86 109" id="aD"/><path d="M13-71v-27h94v27H13" id="aE"/><path d="M10-9l31-5v-208l-31-4v-10h177v57h-11l-6-38c-28-4-63-3-95-3v92h63l6-28h11v73h-11l-6-29H75v96l105-3 10-43h12l-3 62H10v-9" id="aF"/><path d="M55 0v-9l38-5v-207c-22 1-53 0-70 4l-5 37H7v-56h207v56h-12l-5-37-70-3v206l37 5v9H55" id="aG"/><path d="M199-173c-1 36-21 56-49 65l64 94 26 5v9h-57l-66-103H75v89l35 5v9H13v-9l28-5v-208l-31-4v-10c80 4 190-20 189 63zM75-119c50 2 89-1 89-51 0-49-39-52-89-50v101" id="aH"/><g id="z"><use transform="matrix(0.05555555555555555,0,0,0.05555555555555555,0,0)" xlink:href="#aD"/><use transform="matrix(0.05555555555555555,0,0,0.05555555555555555,13.333333333333332,0)" xlink:href="#ac"/><use transform="matrix(0.05555555555555555,0,0,0.05555555555555555,23.333333333333332,0)" xlink:href="#aE"/><use transform="matrix(0.05555555555555555,0,0,0.05555555555555555,29.944444444444443,0)" xlink:href="#as"/><use transform="matrix(0.05555555555555555,0,0,0.05555555555555555,44.33333333333333,0)" xlink:href="#aF"/><use transform="matrix(0.05555555555555555,0,0,0.05555555555555555,56.49999999999999,0)" xlink:href="#aG"/><use transform="matrix(0.05555555555555555,0,0,0.05555555555555555,68.66666666666666,0)" xlink:href="#aH"/></g><g id="A"><use transform="matrix(0.05555555555555555,0,0,0.05555555555555555,0,0)" xlink:href="#aH"/><use transform="matrix(0.05555555555555555,0,0,0.05555555555555555,13.333333333333332,0)" xlink:href="#af"/><use transform="matrix(0.05555555555555555,0,0,0.05555555555555555,22.166666666666664,0)" xlink:href="#ad"/><use transform="matrix(0.05555555555555555,0,0,0.05555555555555555,32.166666666666664,0)" xlink:href="#ag"/><use transform="matrix(0.05555555555555555,0,0,0.05555555555555555,42.166666666666664,0)" xlink:href="#af"/><use transform="matrix(0.05555555555555555,0,0,0.05555555555555555,51,0)" xlink:href="#ab"/></g><g id="B"><use transform="matrix(0.05555555555555555,0,0,0.05555555555555555,0,0)" xlink:href="#ai"/><use transform="matrix(0.05555555555555555,0,0,0.05555555555555555,10,0)" xlink:href="#ac"/><use transform="matrix(0.05555555555555555,0,0,0.05555555555555555,20,0)" xlink:href="#ai"/><use transform="matrix(0.05555555555555555,0,0,0.05555555555555555,30,0)" xlink:href="#ap"/><use transform="matrix(0.05555555555555555,0,0,0.05555555555555555,40,0)" xlink:href="#aj"/><use transform="matrix(0.05555555555555555,0,0,0.05555555555555555,45.55555555555556,0)" xlink:href="#am"/><use transform="matrix(0.05555555555555555,0,0,0.05555555555555555,54.388888888888886,0)" xlink:href="#ae"/><use transform="matrix(0.05555555555555555,0,0,0.05555555555555555,59.94444444444444,0)" xlink:href="#af"/><use transform="matrix(0.05555555555555555,0,0,0.05555555555555555,68.77777777777777,0)" xlink:href="#ag"/></g><g id="C"><use transform="matrix(0.05555555555555555,0,0,0.05555555555555555,0,0)" xlink:href="#at"/><use transform="matrix(0.05555555555555555,0,0,0.05555555555555555,6.611111111111111,0)" xlink:href="#ab"/><use transform="matrix(0.05555555555555555,0,0,0.05555555555555555,13.222222222222221,0)" xlink:href="#am"/><use transform="matrix(0.05555555555555555,0,0,0.05555555555555555,22.055555555555554,0)" xlink:href="#ax"/><use transform="matrix(0.05555555555555555,0,0,0.05555555555555555,37.61111111111111,0)" xlink:href="#af"/><use transform="matrix(0.05555555555555555,0,0,0.05555555555555555,46.44444444444444,0)" xlink:href="#an"/></g><path d="M126-119c3-38-42-31-69-25v132l23 4v8H7v-8l21-4v-226l-24-4v-8h53l-1 98c31-22 99-31 99 31v109c7 3 23-1 20 12h-71v-8l22-4v-107" id="aI"/><g id="D"><use transform="matrix(0.05555555555555555,0,0,0.05555555555555555,0,0)" xlink:href="#ay"/><use transform="matrix(0.05555555555555555,0,0,0.05555555555555555,14.388888888888888,0)" xlink:href="#ak"/><use transform="matrix(0.05555555555555555,0,0,0.05555555555555555,19.944444444444443,0)" xlink:href="#ae"/><use transform="matrix(0.05555555555555555,0,0,0.05555555555555555,25.5,0)" xlink:href="#aI"/></g><g id="E"><use transform="matrix(0.05555555555555555,0,0,0.05555555555555555,0,0)" xlink:href="#ag"/><use transform="matrix(0.05555555555555555,0,0,0.05555555555555555,10,0)" xlink:href="#af"/><use transform="matrix(0.05555555555555555,0,0,0.05555555555555555,18.833333333333332,0)" xlink:href="#ae"/><use transform="matrix(0.05555555555555555,0,0,0.05555555555555555,24.388888888888886,0)" xlink:href="#af"/><use transform="matrix(0.05555555555555555,0,0,0.05555555555555555,33.222222222222214,0)" xlink:href="#al"/><use transform="matrix(0.05555555555555555,0,0,0.05555555555555555,42.05555555555554,0)" xlink:href="#ae"/><use transform="matrix(0.05555555555555555,0,0,0.05555555555555555,47.6111111111111,0)" xlink:href="#ak"/><use transform="matrix(0.05555555555555555,0,0,0.05555555555555555,53.16666666666666,0)" xlink:href="#ac"/><use transform="matrix(0.05555555555555555,0,0,0.05555555555555555,63.166666666666664,0)" xlink:href="#ad"/></g><path d="M156-12c7 3 23-1 20 12h-75v-8l22-4-38-58-45 58 23 4v8H3v-8l19-3 55-71-48-71c-7-3-23 1-20-12h75v8l-22 4 32 48 37-48-23-4v-8h59v8l-19 3-46 60" id="aJ"/><g id="F"><use transform="matrix(0.05555555555555555,0,0,0.05555555555555555,0,0)" xlink:href="#aC"/><use transform="matrix(0.05555555555555555,0,0,0.05555555555555555,10,0)" xlink:href="#ac"/><use transform="matrix(0.05555555555555555,0,0,0.05555555555555555,20,0)" xlink:href="#aJ"/><use transform="matrix(0.05555555555555555,0,0,0.05555555555555555,30,0)" xlink:href="#af"/><use transform="matrix(0.05555555555555555,0,0,0.05555555555555555,38.83333333333333,0)" xlink:href="#an"/></g><g id="G"><use transform="matrix(0.05555555555555555,0,0,0.05555555555555555,0,0)" xlink:href="#ar"/><use transform="matrix(0.05555555555555555,0,0,0.05555555555555555,6.611111111111111,0)" xlink:href="#an"/></g><g id="H"><use transform="matrix(0.05555555555555555,0,0,0.05555555555555555,0,0)" xlink:href="#ae"/><use transform="matrix(0.05555555555555555,0,0,0.05555555555555555,5.555555555555555,0)" xlink:href="#aI"/><use transform="matrix(0.05555555555555555,0,0,0.05555555555555555,15.555555555555555,0)" xlink:href="#af"/></g><g id="I"><use transform="matrix(0.05555555555555555,0,0,0.05555555555555555,0,0)" xlink:href="#al"/><use transform="matrix(0.05555555555555555,0,0,0.05555555555555555,8.833333333333332,0)" xlink:href="#aj"/><use transform="matrix(0.05555555555555555,0,0,0.05555555555555555,14.388888888888888,0)" xlink:href="#ak"/><use transform="matrix(0.05555555555555555,0,0,0.05555555555555555,19.944444444444443,0)" xlink:href="#ad"/><use transform="matrix(0.05555555555555555,0,0,0.05555555555555555,29.944444444444443,0)" xlink:href="#ak"/><use transform="matrix(0.05555555555555555,0,0,0.05555555555555555,35.5,0)" xlink:href="#al"/><use transform="matrix(0.05555555555555555,0,0,0.05555555555555555,44.33333333333333,0)" xlink:href="#ak"/><use transform="matrix(0.05555555555555555,0,0,0.05555555555555555,49.888888888888886,0)" xlink:href="#am"/><use transform="matrix(0.05555555555555555,0,0,0.05555555555555555,58.72222222222222,0)" xlink:href="#ad"/></g><path d="M19-231c61-19 146-3 123 76-8 29-32 42-62 48l-3 45H63l-4-58c33-4 57-15 54-56 6-47-42-58-77-39l-6 29H19v-45zM72-37c14 0 21 9 21 21S84 5 72 5 50-2 51-16c0-13 8-21 21-21" id="aK"/><g id="J"><use transform="matrix(0.05555555555555555,0,0,0.05555555555555555,0,0)" xlink:href="#aq"/><use transform="matrix(0.05555555555555555,0,0,0.05555555555555555,10,0)" xlink:href="#ak"/><use transform="matrix(0.05555555555555555,0,0,0.05555555555555555,15.555555555555555,0)" xlink:href="#an"/><use transform="matrix(0.05555555555555555,0,0,0.05555555555555555,23.333333333333332,0)" xlink:href="#ak"/><use transform="matrix(0.05555555555555555,0,0,0.05555555555555555,28.888888888888886,0)" xlink:href="#aC"/><use transform="matrix(0.05555555555555555,0,0,0.05555555555555555,38.888888888888886,0)" xlink:href="#aj"/><use transform="matrix(0.05555555555555555,0,0,0.05555555555555555,44.44444444444444,0)" xlink:href="#af"/><use transform="matrix(0.05555555555555555,0,0,0.05555555555555555,53.27777777777777,0)" xlink:href="#aK"/></g><path d="M203-222l-32-4v-10h81v10l-31 4V0h-17L59-212v198l32 5v9H10v-9l31-5v-208l-31-4v-10h72L203-61v-161" id="aL"/><g id="K"><use transform="matrix(0.05555555555555555,0,0,0.05555555555555555,0,0)" xlink:href="#aL"/><use transform="matrix(0.05555555555555555,0,0,0.05555555555555555,14.388888888888888,0)" xlink:href="#ac"/></g><path d="M147-93v79l38 5v9H76v-9l37-5v-78L31-222l-27-4v-10h100v10l-32 4 68 109 64-109-30-4v-10h77v10l-26 4" id="aM"/><g id="L"><use transform="matrix(0.05555555555555555,0,0,0.05555555555555555,0,0)" xlink:href="#aM"/><use transform="matrix(0.05555555555555555,0,0,0.05555555555555555,12.388888888888888,0)" xlink:href="#af"/><use transform="matrix(0.05555555555555555,0,0,0.05555555555555555,21.22222222222222,0)" xlink:href="#an"/></g><g id="M"><use transform="matrix(0.05555555555555555,0,0,0.05555555555555555,0,0)" xlink:href="#aA"/><use transform="matrix(0.05555555555555555,0,0,0.05555555555555555,13.333333333333332,0)" xlink:href="#ac"/><use transform="matrix(0.05555555555555555,0,0,0.05555555555555555,23.333333333333332,0)" xlink:href="#ac"/><use transform="matrix(0.05555555555555555,0,0,0.05555555555555555,33.33333333333333,0)" xlink:href="#an"/><use transform="matrix(0.05555555555555555,0,0,0.05555555555555555,41.11111111111111,0)" xlink:href="#ae"/><use transform="matrix(0.05555555555555555,0,0,0.05555555555555555,46.666666666666664,0)" xlink:href="#aG"/><use transform="matrix(0.05555555555555555,0,0,0.05555555555555555,58.11111111111111,0)" xlink:href="#ab"/><use transform="matrix(0.05555555555555555,0,0,0.05555555555555555,64.72222222222221,0)" xlink:href="#am"/><use transform="matrix(0.05555555555555555,0,0,0.05555555555555555,73.55555555555554,0)" xlink:href="#al"/><use transform="matrix(0.05555555555555555,0,0,0.05555555555555555,82.38888888888887,0)" xlink:href="#aw"/></g><g id="N"><use transform="matrix(0.05555555555555555,0,0,0.05555555555555555,0,0)" xlink:href="#al"/><use transform="matrix(0.05555555555555555,0,0,0.05555555555555555,8.833333333333332,0)" xlink:href="#ab"/><use transform="matrix(0.05555555555555555,0,0,0.05555555555555555,15.444444444444443,0)" xlink:href="#ac"/><use transform="matrix(0.05555555555555555,0,0,0.05555555555555555,25.444444444444443,0)" xlink:href="#ai"/><use transform="matrix(0.05555555555555555,0,0,0.05555555555555555,35.44444444444444,0)" xlink:href="#ai"/><use transform="matrix(0.05555555555555555,0,0,0.05555555555555555,45.44444444444444,0)" xlink:href="#af"/><use transform="matrix(0.05555555555555555,0,0,0.05555555555555555,54.27777777777777,0)" xlink:href="#ag"/></g><g id="O"><use transform="matrix(0.05555555555555555,0,0,0.05555555555555555,0,0)" xlink:href="#aq"/><use transform="matrix(0.05555555555555555,0,0,0.05555555555555555,10,0)" xlink:href="#ak"/><use transform="matrix(0.05555555555555555,0,0,0.05555555555555555,15.555555555555555,0)" xlink:href="#ag"/><use transform="matrix(0.05555555555555555,0,0,0.05555555555555555,25.555555555555557,0)" xlink:href="#af"/><use transform="matrix(0.05555555555555555,0,0,0.05555555555555555,34.388888888888886,0)" xlink:href="#ac"/><use transform="matrix(0.05555555555555555,0,0,0.05555555555555555,44.388888888888886,0)" xlink:href="#an"/></g><g id="P"><use transform="matrix(0.05555555555555555,0,0,0.05555555555555555,0,0)" xlink:href="#ai"/><use transform="matrix(0.05555555555555555,0,0,0.05555555555555555,10,0)" xlink:href="#af"/><use transform="matrix(0.05555555555555555,0,0,0.05555555555555555,18.833333333333332,0)" xlink:href="#ab"/></g><g id="Q"><use transform="matrix(0.05555555555555555,0,0,0.05555555555555555,0,0)" xlink:href="#ai"/><use transform="matrix(0.05555555555555555,0,0,0.05555555555555555,10,0)" xlink:href="#af"/><use transform="matrix(0.05555555555555555,0,0,0.05555555555555555,18.833333333333332,0)" xlink:href="#ab"/><use transform="matrix(0.05555555555555555,0,0,0.05555555555555555,25.444444444444443,0)" xlink:href="#an"/><use transform="matrix(0.05555555555555555,0,0,0.05555555555555555,33.22222222222222,0)" xlink:href="#ac"/><use transform="matrix(0.05555555555555555,0,0,0.05555555555555555,43.22222222222222,0)" xlink:href="#ad"/></g><path d="M75-108c48 3 76-12 76-58s-28-57-76-54v112zm111-58c-1 60-46 78-111 74v78l37 5v9H13v-9l28-5v-208l-31-4v-10c81 1 178-14 176 70" id="aN"/><g id="R"><use transform="matrix(0.05555555555555555,0,0,0.05555555555555555,0,0)" xlink:href="#aN"/><use transform="matrix(0.05555555555555555,0,0,0.05555555555555555,11.11111111111111,0)" xlink:href="#aD"/><use transform="matrix(0.05555555555555555,0,0,0.05555555555555555,24.444444444444443,0)" xlink:href="#aG"/></g><path d="M152 0h-7L59-203v189l32 5v9H10v-9l31-5v-208l-31-4v-10h72l76 180 84-180h68v10l-31 4v208l31 5v9h-96v-9l32-5v-189" id="aO"/><g id="S"><use transform="matrix(0.05555555555555555,0,0,0.05555555555555555,0,0)" xlink:href="#aO"/><use transform="matrix(0.05555555555555555,0,0,0.05555555555555555,17.77777777777778,0)" xlink:href="#ac"/><use transform="matrix(0.05555555555555555,0,0,0.05555555555555555,27.77777777777778,0)" xlink:href="#ae"/><use transform="matrix(0.05555555555555555,0,0,0.05555555555555555,33.333333333333336,0)" xlink:href="#ak"/><use transform="matrix(0.05555555555555555,0,0,0.05555555555555555,38.88888888888889,0)" xlink:href="#ac"/><use transform="matrix(0.05555555555555555,0,0,0.05555555555555555,48.88888888888889,0)" xlink:href="#ad"/><use transform="matrix(0.05555555555555555,0,0,0.05555555555555555,58.8888888888889,0)" xlink:href="#aA"/><use transform="matrix(0.05555555555555555,0,0,0.05555555555555555,72.22222222222223,0)" xlink:href="#aF"/><use transform="matrix(0.05555555555555555,0,0,0.05555555555555555,84.3888888888889,0)" xlink:href="#aH"/><use transform="matrix(0.05555555555555555,0,0,0.05555555555555555,96.5,0)" xlink:href="#aG"/></g><g id="T"><use transform="matrix(0.05555555555555555,0,0,0.05555555555555555,0,0)" xlink:href="#aN"/><use transform="matrix(0.05555555555555555,0,0,0.05555555555555555,11.11111111111111,0)" xlink:href="#ac"/><use transform="matrix(0.05555555555555555,0,0,0.05555555555555555,21.11111111111111,0)" xlink:href="#an"/><use transform="matrix(0.05555555555555555,0,0,0.05555555555555555,28.888888888888886,0)" xlink:href="#ae"/><use transform="matrix(0.05555555555555555,0,0,0.05555555555555555,34.44444444444444,0)" xlink:href="#aE"/><use transform="matrix(0.05555555555555555,0,0,0.05555555555555555,41.05555555555556,0)" xlink:href="#ai"/><use transform="matrix(0.05555555555555555,0,0,0.05555555555555555,51.05555555555556,0)" xlink:href="#ab"/><use transform="matrix(0.05555555555555555,0,0,0.05555555555555555,57.66666666666668,0)" xlink:href="#ac"/><use transform="matrix(0.05555555555555555,0,0,0.05555555555555555,67.66666666666667,0)" xlink:href="#al"/><use transform="matrix(0.05555555555555555,0,0,0.05555555555555555,76.5,0)" xlink:href="#af"/><use transform="matrix(0.05555555555555555,0,0,0.05555555555555555,85.33333333333333,0)" xlink:href="#an"/><use transform="matrix(0.05555555555555555,0,0,0.05555555555555555,93.1111111111111,0)" xlink:href="#an"/></g><g id="U"><use transform="matrix(0.05555555555555555,0,0,0.05555555555555555,0,0)" xlink:href="#ac"/><use transform="matrix(0.05555555555555555,0,0,0.05555555555555555,10,0)" xlink:href="#ap"/><use transform="matrix(0.05555555555555555,0,0,0.05555555555555555,20,0)" xlink:href="#ae"/><use transform="matrix(0.05555555555555555,0,0,0.05555555555555555,25.555555555555557,0)" xlink:href="#ai"/><use transform="matrix(0.05555555555555555,0,0,0.05555555555555555,35.55555555555556,0)" xlink:href="#ap"/><use transform="matrix(0.05555555555555555,0,0,0.05555555555555555,45.55555555555556,0)" xlink:href="#ae"/></g><g id="V"><use transform="matrix(0.05555555555555555,0,0,0.05555555555555555,0,0)" xlink:href="#aN"/><use transform="matrix(0.05555555555555555,0,0,0.05555555555555555,11.11111111111111,0)" xlink:href="#am"/><use transform="matrix(0.05555555555555555,0,0,0.05555555555555555,19.944444444444443,0)" xlink:href="#al"/><use transform="matrix(0.05555555555555555,0,0,0.05555555555555555,28.777777777777775,0)" xlink:href="#aw"/><use transform="matrix(0.05555555555555555,0,0,0.05555555555555555,38.77777777777777,0)" xlink:href="#am"/><use transform="matrix(0.05555555555555555,0,0,0.05555555555555555,47.6111111111111,0)" xlink:href="#av"/><use transform="matrix(0.05555555555555555,0,0,0.05555555555555555,57.61111111111109,0)" xlink:href="#af"/></g><g id="W"><use transform="matrix(0.05555555555555555,0,0,0.05555555555555555,0,0)" xlink:href="#ag"/><use transform="matrix(0.05555555555555555,0,0,0.05555555555555555,10,0)" xlink:href="#am"/><use transform="matrix(0.05555555555555555,0,0,0.05555555555555555,18.833333333333332,0)" xlink:href="#ae"/><use transform="matrix(0.05555555555555555,0,0,0.05555555555555555,24.388888888888886,0)" xlink:href="#am"/></g><g id="X"><use transform="matrix(0.14814814814814817,0,0,0.14814814814814817,0,0)" xlink:href="#aN"/><use transform="matrix(0.14814814814814817,0,0,0.14814814814814817,29.629629629629633,0)" xlink:href="#ab"/><use transform="matrix(0.14814814814814817,0,0,0.14814814814814817,47.25925925925927,0)" xlink:href="#ac"/><use transform="matrix(0.14814814814814817,0,0,0.14814814814814817,73.92592592592594,0)" xlink:href="#ai"/><use transform="matrix(0.14814814814814817,0,0,0.14814814814814817,100.59259259259261,0)" xlink:href="#ac"/><use transform="matrix(0.14814814814814817,0,0,0.14814814814814817,127.25925925925928,0)" xlink:href="#an"/><use transform="matrix(0.14814814814814817,0,0,0.14814814814814817,148.00000000000003,0)" xlink:href="#af"/><use transform="matrix(0.14814814814814817,0,0,0.14814814814814817,171.5555555555556,0)" xlink:href="#ag"/></g><g id="Y"><use transform="matrix(0.14814814814814817,0,0,0.14814814814814817,0,0)" xlink:href="#ak"/><use transform="matrix(0.14814814814814817,0,0,0.14814814814814817,14.814814814814817,0)" xlink:href="#ad"/><use transform="matrix(0.14814814814814817,0,0,0.14814814814814817,41.48148148148149,0)" xlink:href="#at"/><use transform="matrix(0.14814814814814817,0,0,0.14814814814814817,59.11111111111112,0)" xlink:href="#af"/><use transform="matrix(0.14814814814814817,0,0,0.14814814814814817,82.66666666666667,0)" xlink:href="#ab"/><use transform="matrix(0.14814814814814817,0,0,0.14814814814814817,100.29629629629633,0)" xlink:href="#af"/><use transform="matrix(0.14814814814814817,0,0,0.14814814814814817,123.85185185185186,0)" xlink:href="#ad"/><use transform="matrix(0.14814814814814817,0,0,0.14814814814814817,150.51851851851853,0)" xlink:href="#al"/><use transform="matrix(0.14814814814814817,0,0,0.14814814814814817,174.07407407407408,0)" xlink:href="#af"/></g><g id="Z"><use transform="matrix(0.14814814814814817,0,0,0.14814814814814817,0,0)" xlink:href="#am"/><use transform="matrix(0.14814814814814817,0,0,0.14814814814814817,23.555555555555557,0)" xlink:href="#ab"/><use transform="matrix(0.14814814814814817,0,0,0.14814814814814817,41.18518518518519,0)" xlink:href="#al"/><use transform="matrix(0.14814814814814817,0,0,0.14814814814814817,64.74074074074075,0)" xlink:href="#aI"/><use transform="matrix(0.14814814814814817,0,0,0.14814814814814817,91.40740740740742,0)" xlink:href="#ak"/><use transform="matrix(0.14814814814814817,0,0,0.14814814814814817,106.22222222222224,0)" xlink:href="#ae"/><use transform="matrix(0.14814814814814817,0,0,0.14814814814814817,121.03703703703704,0)" xlink:href="#af"/><use transform="matrix(0.14814814814814817,0,0,0.14814814814814817,144.5925925925926,0)" xlink:href="#al"/><use transform="matrix(0.14814814814814817,0,0,0.14814814814814817,168.14814814814812,0)" xlink:href="#ae"/><use transform="matrix(0.14814814814814817,0,0,0.14814814814814817,182.96296296296296,0)" xlink:href="#ap"/><use transform="matrix(0.14814814814814817,0,0,0.14814814814814817,209.62962962962962,0)" xlink:href="#ab"/><use transform="matrix(0.14814814814814817,0,0,0.14814814814814817,227.2592592592592,0)" xlink:href="#af"/></g></defs></g></svg>