<?xml version="1.0" encoding="UTF-8"?>
<svg id="_레이어_2" data-name="레이어 2" xmlns="http://www.w3.org/2000/svg" xmlns:xlink="http://www.w3.org/1999/xlink" viewBox="0 0 244.56 25.89">
  <defs>
    <style>
      .cls-1 {
        fill: url(#radial-gradient);
      }

      .cls-1, .cls-2 {
        stroke-width: 0px;
      }

      .cls-2 {
        fill: #fff;
      }
    </style>
    <radialGradient id="radial-gradient" cx="-155.82" cy="-363.34" fx="-155.82" fy="-363.34" r="92.32" gradientTransform="translate(114.25 77.63) scale(.22)" gradientUnits="userSpaceOnUse">
      <stop offset="0" stop-color="#82c1ea"/>
      <stop offset=".11" stop-color="#49a9de"/>
      <stop offset=".22" stop-color="#1494d3"/>
      <stop offset=".28" stop-color="#008ccf"/>
      <stop offset="1" stop-color="#00348c"/>
    </radialGradient>
  </defs>
  <g id="_레이어_1-2" data-name="레이어 1">
    <g>
      <g>
        <g>
          <path class="cls-1" d="M82.21,0h14.98v11.32c0,1.08-.31,7.15-7.49,9.59-7.18-2.44-7.49-8.51-7.49-9.59V0Z"/>
          <path class="cls-2" d="M86.13,16.62l2.24-2.26,2.22,2.22h2.94v-6.44h1.93v-2.35h-1.93v-.7h1.93v-2.16h-1.99v-2.76h-6.19v2.14h3.78v9.28l-2.69-2.66-3.96,3.96,1.72,1.73Z"/>
        </g>
        <path class="cls-2" d="M57.3,4.32h-4.55v13.71c0,3.52-.6,5.3-3.85,5.3s-3.75-1.95-3.75-5.3V4.32h-4.72v13.94c0,3.95,1.03,7.61,8.48,7.61s8.58-3.65,8.58-7.61V4.32h-.17Z"/>
        <polygon class="cls-2" points="73.13 25.54 77.85 25.54 77.85 4.32 77.68 4.32 73.13 4.32 73.13 13.11 65.42 13.11 65.42 4.32 60.69 4.32 60.69 25.54 65.42 25.54 65.42 16.03 73.13 16.03 73.13 25.54"/>
        <path class="cls-2" d="M32.74,4.32v14.24c-.58-1-8.27-14.24-8.27-14.24h-5.06v21.21h4.39s0-13.87,0-15c.58,1.01,8.71,15,8.71,15h4.62V4.32h-4.39Z"/>
        <path class="cls-2" d="M9.87,12.6c-2.71-1.18-5.05-2.19-5.05-3.91,0-1.2,1.32-2.01,3.28-2,3.14.02,6.23,1.12,7.18,1.51l.26.11v-3.68h-.09c-.9-.16-3.88-.64-6.69-.64C3.28,3.99,0,6.06,0,9.54c0,3.67,3.65,5.33,6.87,6.8,2.66,1.22,5.18,2.36,5.18,4.44,0,2.23-3.41,2.32-3.8,2.32-2.17,0-4.65-.66-7.57-2.15l-.28-.14v4.08l.32.08c1.05.25,3.85.9,6.75.9,6.39,0,9.76-2.2,9.76-6.36,0-3.71-3.91-5.41-7.37-6.91Z"/>
      </g>
      <g>
        <path class="cls-2" d="M183.7,4.76h-3.2v11.46h3.2v-4.12h2.65v-2.02h-2.65v-5.32Z"/>
        <path class="cls-2" d="M171.58,19.47h8.92v5.74h3.2v-7.77h-12.12v2.02Z"/>
        <path class="cls-2" d="M178.31,11.47c0-1.06-.38-2.03-1.03-2.82h2.35v-2.03h-4.85v-2.59h-3.2v2.59h-4.85v2.03h2.25c-.64.79-1.03,1.76-1.03,2.82,0,2.6,2.33,4.72,5.18,4.72s5.17-2.12,5.17-4.72ZM171.08,11.46c0-1.51.92-2.74,2.06-2.74s2.05,1.23,2.05,2.74-.92,2.75-2.05,2.75-2.06-1.23-2.06-2.75Z"/>
        <path class="cls-2" d="M161.29,4.81v11.65c-2.32,1.1-4.94,1.2-5.97,1.2h-7.6v2.03h7.62c2.38-.03,4.38-.43,5.95-1.17v6.71h3.19V4.81h-3.19Z"/>
        <path class="cls-2" d="M153.87,16.17c3.06,0,5.55-2.46,5.55-5.49s-2.49-5.49-5.55-5.49-5.54,2.46-5.54,5.49,2.48,5.49,5.54,5.49ZM153.87,7.23c1.41,0,2.56,1.55,2.56,3.46s-1.15,3.46-2.56,3.46-2.56-1.55-2.56-3.46,1.15-3.46,2.56-3.46Z"/>
        <path class="cls-2" d="M241.36,4.75v9.61h-14.11v2.01h4.77v2.21h3.2v-2.21h6.14v.87h-3.4v2.02h3.4v1.63h3.2V4.75h-3.2Z"/>
        <path class="cls-2" d="M235.21,19.51h-3.21v4.82c0,.49.42.89.94.89h11.61v-2.02h-9.34v-3.69Z"/>
        <path class="cls-2" d="M233.8,13.74c2.93,0,5.31-2.06,5.31-4.6s-2.38-4.61-5.31-4.61-5.3,2.07-5.3,4.61,2.38,4.6,5.3,4.6ZM233.81,6.52c1.2,0,2.16,1.17,2.16,2.62s-.97,2.62-2.16,2.62-2.16-1.17-2.16-2.62.98-2.62,2.16-2.62Z"/>
        <path class="cls-2" d="M198.38,5.96h-9.79v2.03h6.45c-.96,5.71-7.56,9.24-7.56,9.24l1.45,1.66.08-.03c9.75-4.57,9.37-12.7,9.37-12.77v-.13Z"/>
        <rect class="cls-2" x="200.95" y="4.76" width="3.2" height="20.46"/>
        <path class="cls-2" d="M140.12,19.22h-5.74l-.02-1.92h-3.18s0,.13,0,.13v6.89c0,.49.42.89.94.89h11.07s.12,0,.12,0v-7.9h-3.21s.01,1.92.01,1.92ZM134.38,23.15v-1.91h5.74v1.91h-5.74Z"/>
        <path class="cls-2" d="M137.92,11.45c0-1.06-.38-2.03-1.03-2.82h2.17v-2.05h-4.67v-2.57h-3.2v2.57h-4.67v2.05h2.07c-.64.79-1.03,1.76-1.03,2.82,0,2.6,2.33,4.72,5.18,4.72s5.17-2.12,5.17-4.72ZM130.6,11.45c0-1.51.96-2.74,2.14-2.74s2.14,1.23,2.14,2.74-.96,2.75-2.14,2.75-2.14-1.23-2.14-2.75Z"/>
        <polygon class="cls-2" points="143.32 4.75 140.12 4.75 140.12 16.21 143.32 16.21 143.32 11.24 145.96 11.24 145.96 9.22 143.32 9.22 143.32 4.75"/>
        <path class="cls-2" d="M209.41,12.69c3-.88,5.57-2.43,6.79-3.91,1.22,1.48,3.79,3.03,6.79,3.91l.1.05,1.25-1.72-.15-.08c-2.88-.88-4.98-2.52-5.79-4.13-.53-.96-.56-2-.56-2h-3.25s-.03,1.05-.56,2c-.81,1.61-2.91,3.24-5.79,4.13l-.15.08,1.25,1.72.1-.05Z"/>
        <path class="cls-2" d="M206.57,15.42h8.04v1.48h-4.99v2.02h9.97v1.11h-9.97v4.3c0,.49.42.89.93.89h12.24v-2.02h-9.97v-1.14h9.97v-5.16h-4.99v-1.48h8.04v-2.03h-19.27v2.03Z"/>
        <path class="cls-2" d="M106.6,15.53h4.73v2.05h1.82c-1.61.79-2.69,2.21-2.69,3.84,0,2.47,2.48,4.48,5.54,4.48s5.55-2.01,5.55-4.48c0-1.63-1.08-3.05-2.69-3.84h1.83v-2.05h4.73v-2.03h-18.82v2.03ZM116,23.9c-1.32,0-2.39-1.12-2.39-2.49s1.07-2.49,2.39-2.49,2.39,1.12,2.39,2.49-1.07,2.49-2.39,2.49ZM117.51,17.1c-.48-.11-.98-.17-1.51-.17s-1.01.06-1.49.17v-1.57h2.99v1.58Z"/>
        <path class="cls-2" d="M116,12.95c3.06,0,5.55-2.01,5.55-4.48s-2.49-4.48-5.55-4.48-5.54,2.01-5.54,4.48,2.48,4.48,5.54,4.48ZM116,5.98c1.32,0,2.39,1.12,2.39,2.49s-1.07,2.49-2.39,2.49-2.39-1.12-2.39-2.49,1.07-2.49,2.39-2.49Z"/>
      </g>
    </g>
  </g>
</svg>